<?xml version="1.0" encoding="utf-8"?>
<!-- Generator: Adobe Illustrator 16.0.0, SVG Export Plug-In . SVG Version: 6.00 Build 0)  -->
<!DOCTYPE svg PUBLIC "-//W3C//DTD SVG 1.1//EN" "http://www.w3.org/Graphics/SVG/1.1/DTD/svg11.dtd">
<svg version="1.1" id="Layer_1" xmlns="http://www.w3.org/2000/svg" xmlns:xlink="http://www.w3.org/1999/xlink" x="0px" y="0px"
	 width="500px" height="500px" viewBox="0 0 500 500" enable-background="new 0 0 500 500" xml:space="preserve">
<path fill="none" stroke="#000000" stroke-miterlimit="10" d="M299.144,257.414"/>
<g>
	<g id="XMLID_1_">
		<g>
			<path fill="#FF87A1" d="M214.297,155.018c1.96-21.595,16.395-28.095,35.354-30.17c18.81-2.07,25.38,12.6,26.5,28.61
				c0.183,19.525-1.936,35.542-22.361,37.97C253.791,191.427,214.236,191.427,214.297,155.018z"/>
		</g>
	</g>
</g>
<g id="XMLID_2_">
	<g>
		<path fill="#9FE5FF" d="M287.169,390.43c2.17,3.811,9.291,9.25,5.951,16.07c-1.371,2.799-19.812,10.6-31.69-3.57
			c-11.432-29.945-5.225-39.445-5.948-46.445c0-1.75,17.822,10.205,33.902-2.945C294.8,366.029,289.562,390.43,287.169,390.43z"/>
	</g>
</g>
<g id="XMLID_3_">
	<g>
		<path fill="#9FE5FF" d="M245.369,387.59c4.631,6.895,8.496,6.924,7.836,15.895c-0.682,9.17-14.287,5.824-16.946,5.895
			c-9.851,0.24-18.479-8.41-20.33-14.539c-5.81-9.711-7.755-30.145-6.104-38.354c3.721,8.398,20.086,14.535,35.449,5.02
			C245.992,361.504,250,369.984,245.369,387.59z"/>
	</g>
</g>
<g id="XMLID_5_">
	<g>
		<path fill="#9FE5FF" d="M191.705,302.484c-6.584,0.002-9.916-20.625-9.916-28.984c0-7.34,13.791-17.74,26.181-8.771
			c9.461,11.809,4.04,25.893,2.521,29.471C207.82,300.541,195.225,302.562,191.705,302.484z"/>
	</g>
</g>
<g id="XMLID_4_">
	<g>
		<path fill="#9FE5FF" d="M321.931,257.418c10.271,32.566-0.729,42.066-16.5,37.471c-14.229-8.404-6.287-34.66-6.287-34.66
			C307.706,242.982,321.931,257.418,321.931,257.418z"/>
	</g>
</g>
<g id="XMLID_6_">
	<g>
		<path fill="#9FE5FF" d="M301.521,138.948c0.068,22.535-9.879,44.938-25.16,50.12l-0.029-0.07
			c9.826-26.017,9.408-30.958,5.935-45.4c-13.765-36.85-63.529-31.958-71.223,0c-5.471,22.73,7.521,47.83,7.521,47.83
			c-26.739-6.479-31.704-33.388-32.96-51.3c0-31.145,14.604-48.645,62.12-51.3C306.706,92.482,301.431,137.287,301.521,138.948z"/>
	</g>
</g>
<g id="XMLID_7_">
	<g>
		<path fill="#9FE5FF" d="M250.199,346.029c-1.17,2.971-2.609,5.602-4.379,7.74c-8.841,10.721-28.58,3.51-31.591,0.93
			c-9.79-8.398-16-29.939-16-43.818c19.976-3.895,38.476-44.395,5.976-53.466c-11-2.933-35.666,6.315-26.045,16.335
			c-40.729-17.38,10.739-82.322,17.689-84.702c0,0,43.75,25.03,103.29,0c7.791-1.951,57.791,54.88,29.791,68.37
			c0.984-9.281-17.502-15.438-27.41-7.99c-17.314,18.057-4.586,45.324-3.34,49.225c3.428,3.834,0.785,19.789,0.6,23.938
			c-0.85,18.42-6.149,21.949-8.631,24.439C280.909,356.299,259.649,356.049,250.199,346.029z"/>
	</g>
</g>
</svg>
