<?xml version="1.0" encoding="UTF-8"?>
<svg width="20px" height="20px" viewBox="0 0 20 20" version="1.1" xmlns="http://www.w3.org/2000/svg" xmlns:xlink="http://www.w3.org/1999/xlink">
    <!-- Generator: Sketch 64 (93537) - https://sketch.com -->
    <title>icon/apartment</title>
    <desc>Created with Sketch.</desc>
    <g id="icon/apartment" stroke="none" stroke-width="1" fill="none" fill-rule="evenodd">
        <g id="apartment-black-18dp">
            <rect id="Rectangle" x="0" y="0" width="20" height="20"></rect>
            <path d="M15.1111111,8.88888889 L15.1111111,0 L4,0 L4,4.44444444 L4,20 L8.44444444,20 L8.44444444,15.5555556 L10.6666667,15.5555556 L10.6666667,20 L15.1111111,20 L15.1111111,8.88888889 Z M8.44444444,13.3333333 L6.22222222,13.3333333 L6.22222222,11.1111111 L8.44444444,11.1111111 L8.44444444,13.3333333 Z M8.44444444,8.88888889 L6.22222222,8.88888889 L6.22222222,6.66666667 L8.44444444,6.66666667 L8.44444444,8.88888889 Z M8.44444444,4.44444444 L6.22222222,4.44444444 L6.22222222,2.22222222 L8.44444444,2.22222222 L8.44444444,4.44444444 Z M12.8888889,13.3333333 L10.6666667,13.3333333 L10.6666667,11.1111111 L12.8888889,11.1111111 L12.8888889,13.3333333 Z M12.8888889,8.88888889 L10.6666667,8.88888889 L10.6666667,6.66666667 L12.8888889,6.66666667 L12.8888889,8.88888889 Z M12.8888889,4.44444444 L10.6666667,4.44444444 L10.6666667,2.22222222 L12.8888889,2.22222222 L12.8888889,4.44444444 Z" id="Shape" fill="#737F8B" fill-rule="nonzero"></path>
        </g>
    </g>
</svg>