<?xml version="1.0" encoding="windows-1252"?>
<!-- Generator: Adobe Illustrator 22.1.0, SVG Export Plug-In . SVG Version: 6.00 Build 0)  -->
<svg version="1.1" xmlns="http://www.w3.org/2000/svg" xmlns:xlink="http://www.w3.org/1999/xlink" x="0px" y="0px" viewBox="0 0 50 50" style="enable-background:new 0 0 50 50;" xml:space="preserve">
<g id="Layer_1">
	<path d="M35.835,20.579C38.335,18.978,40,16.183,40,13c0-4.963-4.038-9-9-9c-0.857,0-1.705,0.128-2.531,0.373   C26.635,2.31,23.971,1,21,1c-5.514,0-10,4.486-10,10c0,3.431,1.739,6.464,4.38,8.265C9.463,20.481,5,25.729,5,32v17h32v-4h8V33   C45,27.166,41.137,22.219,35.835,20.579z M29.722,6.12C30.144,6.04,30.571,6,31,6c3.86,0,7,3.141,7,7s-3.14,7-7,7   c-1.373,0-2.695-0.4-3.826-1.144c0.015-0.012,0.027-0.025,0.042-0.037c0.858-0.684,1.599-1.505,2.195-2.431   c0.023-0.036,0.044-0.074,0.067-0.11c0.168-0.269,0.324-0.546,0.466-0.832c0.026-0.053,0.052-0.107,0.077-0.16   c0.13-0.272,0.247-0.551,0.353-0.836c0.024-0.064,0.048-0.128,0.071-0.193c0.096-0.276,0.177-0.557,0.249-0.844   c0.019-0.074,0.04-0.148,0.057-0.222c0.063-0.282,0.112-0.569,0.15-0.86c0.011-0.078,0.027-0.154,0.035-0.232   C30.976,11.739,31,11.372,31,11c0-0.396-0.029-0.785-0.074-1.169c-0.014-0.121-0.037-0.24-0.055-0.361   c-0.042-0.27-0.092-0.536-0.155-0.798c-0.03-0.126-0.062-0.251-0.097-0.375c-0.082-0.291-0.177-0.575-0.284-0.855   c-0.029-0.075-0.052-0.152-0.083-0.227c-0.152-0.371-0.326-0.73-0.52-1.077C29.728,6.132,29.725,6.126,29.722,6.12z M13,11   c0-4.411,3.589-8,8-8c2.477,0,4.693,1.132,6.162,2.904l0.064,0.083c0.049,0.06,0.092,0.125,0.139,0.186   c0.508,0.669,0.897,1.398,1.171,2.167c0.019,0.053,0.04,0.104,0.057,0.157c0.119,0.357,0.208,0.724,0.275,1.096   c0.014,0.079,0.025,0.159,0.037,0.239C28.961,10.217,29,10.605,29,11c0,0.328-0.025,0.652-0.065,0.973   c-0.009,0.076-0.023,0.15-0.034,0.225c-0.041,0.264-0.092,0.525-0.159,0.782c-0.014,0.055-0.027,0.11-0.042,0.165   c-0.181,0.643-0.439,1.26-0.771,1.836c-0.007,0.011-0.014,0.022-0.02,0.033c-0.161,0.276-0.339,0.541-0.532,0.797   c-0.018,0.024-0.036,0.049-0.054,0.073c-0.408,0.528-0.883,1.006-1.417,1.422c-0.028,0.022-0.057,0.042-0.085,0.064   c-0.254,0.192-0.519,0.372-0.797,0.534c-0.032,0.019-0.063,0.039-0.095,0.058l-0.155,0.09C23.648,18.655,22.364,19,21,19   C16.589,19,13,15.411,13,11z M35,47H7V32c0-6.065,4.935-11,11-11h6c1.495,0,2.921,0.302,4.222,0.845l0.192,0.086   c0.111,0.049,0.218,0.105,0.327,0.158c0.297,0.142,0.584,0.297,0.864,0.463c0.127,0.076,0.256,0.15,0.38,0.231   c0.133,0.086,0.261,0.177,0.39,0.269c0.133,0.095,0.264,0.193,0.393,0.294c0.115,0.09,0.229,0.179,0.34,0.273   c0.169,0.144,0.332,0.294,0.492,0.448c0.126,0.121,0.249,0.245,0.369,0.372c0.135,0.143,0.269,0.287,0.397,0.436   c0.095,0.112,0.186,0.226,0.276,0.341c0.102,0.13,0.2,0.262,0.297,0.397c0.088,0.122,0.176,0.244,0.259,0.37   c0.114,0.173,0.219,0.352,0.323,0.531c0.109,0.188,0.21,0.379,0.308,0.573c0.072,0.142,0.142,0.285,0.208,0.431   c0.065,0.144,0.126,0.291,0.184,0.438c0.062,0.157,0.119,0.316,0.175,0.476c0.046,0.134,0.096,0.267,0.137,0.403   c0.084,0.279,0.157,0.562,0.219,0.849c0.024,0.11,0.041,0.223,0.062,0.334c0.041,0.222,0.076,0.446,0.103,0.672   c0.013,0.106,0.026,0.212,0.035,0.319C34.979,31.336,35,31.666,35,32v13V47z M43,43h-6V32c0-0.475-0.029-0.943-0.079-1.405   c-0.012-0.111-0.035-0.219-0.05-0.329c-0.048-0.355-0.103-0.707-0.179-1.052c-0.026-0.116-0.06-0.229-0.089-0.344   c-0.084-0.336-0.176-0.669-0.285-0.994c-0.038-0.113-0.082-0.224-0.123-0.336c-0.117-0.32-0.244-0.634-0.385-0.942   c-0.052-0.112-0.106-0.222-0.161-0.333c-0.148-0.299-0.306-0.592-0.476-0.878c-0.065-0.109-0.13-0.217-0.197-0.325   c-0.178-0.28-0.367-0.551-0.565-0.817c-0.075-0.1-0.147-0.202-0.224-0.3c-0.218-0.275-0.449-0.537-0.687-0.793   c-0.07-0.075-0.134-0.153-0.206-0.227c-0.316-0.323-0.645-0.633-0.993-0.922C38.227,22.163,43,27.035,43,33V43z"/>
</g>
<g>
</g>
</svg>