<svg width="511" height="156" viewBox="0 0 511 156" fill="none" xmlns="http://www.w3.org/2000/svg">
<path d="M140.256 118.359L140.208 118.405C147.871 106.799 152.343 92.9009 152.343 77.9526C152.343 37.3425 119.422 4.42139 78.8117 4.42139C38.2016 4.42139 5.28027 37.3425 5.28027 77.9526C5.28027 118.563 38.2014 151.484 78.8117 151.484C92.6008 151.484 105.498 147.68 116.527 141.077L116.495 141.107C121.748 137.966 147.38 154.634 151.677 150.326C155.176 146.818 137.519 122.512 140.256 118.359H140.256Z" fill="#FF89BB"/>
<path d="M48.3439 80.2409C53.9816 80.2409 58.5519 74.616 58.5519 67.6773C58.5519 60.7386 53.9816 55.1136 48.3439 55.1136C42.7062 55.1136 38.136 60.7386 38.136 67.6773C38.136 74.616 42.7062 80.2409 48.3439 80.2409Z" fill="#414041"/>
<path d="M105.981 73.976C111.619 73.976 116.189 68.3511 116.189 61.4124C116.189 54.4737 111.619 48.8488 105.981 48.8488C100.344 48.8488 95.7734 54.4737 95.7734 61.4124C95.7734 68.3511 100.344 73.976 105.981 73.976Z" fill="#414041"/>
<path d="M74.913 126.42C52.0138 126.42 36.5928 113.383 35.8593 112.751C33.0783 110.353 32.7666 106.154 35.1646 103.373C37.5555 100.602 41.7423 100.283 44.5213 102.662C44.7831 102.882 60.8958 116.207 82.9352 112.438C105.727 108.546 118.682 91.3954 118.811 91.2243C120.999 88.2742 125.164 87.6609 128.111 89.845C131.059 92.0331 131.677 96.1976 129.488 99.1457C128.835 100.028 113.167 120.764 85.1733 125.546C81.615 126.153 78.186 126.42 74.913 126.42L74.913 126.42Z" fill="#414041"/>
<path d="M252.451 115.408L220.172 87.7505L249.503 62.5052C252.123 60.2519 252.419 56.2993 250.164 53.6793C247.911 51.0592 243.957 50.7597 241.337 53.0192L206.423 83.0674V35.0759C206.423 31.6185 203.62 28.817 200.164 28.817C196.707 28.817 193.905 31.6185 193.905 35.0759V120.161C193.905 123.619 196.707 126.42 200.164 126.42C203.62 126.42 206.423 123.619 206.423 120.161V92.4538L244.306 124.915C245.487 125.925 246.934 126.42 248.376 126.42C250.14 126.42 251.893 125.679 253.132 124.234C255.38 121.608 255.076 117.657 252.451 115.408V115.408Z" fill="#414041"/>
<path d="M325.732 51.6054C322.274 51.6054 319.473 54.4067 319.473 57.8642V61.2136C312.899 54.0286 303.852 49.5068 294.038 49.5068C274.993 49.5068 259.496 67.0385 259.496 88.59C259.496 110.142 274.993 127.675 294.038 127.675C304.901 127.675 313.439 123.332 319.473 116.787V120.161C319.473 123.619 322.274 126.42 325.732 126.42C329.189 126.42 331.991 123.619 331.991 120.161V57.8642C331.991 54.4067 329.189 51.6054 325.732 51.6054ZM294.038 115.158C282.099 115.158 272.014 102.99 272.014 88.59C272.014 74.1898 282.099 62.0245 294.038 62.0245C305.393 62.0245 317.55 72.6984 317.55 88.59C317.55 106.032 305.723 115.158 294.038 115.158Z" fill="#414041"/>
<path d="M399.038 114.459C397.659 111.293 393.977 109.84 390.801 111.221C390.357 111.413 389.809 111.669 389.171 111.965C386.256 113.324 377.379 117.46 373.985 115.294C372.373 114.267 371.45 110.924 371.45 106.12V63.1063H385.219C388.676 63.1063 391.478 60.305 391.478 56.8475C391.478 53.39 388.676 50.5886 385.219 50.5886H371.45V33.7578C371.45 30.3003 368.649 27.4989 365.191 27.4989C361.734 27.4989 358.932 30.3003 358.932 33.7578V50.5886H349.094C345.636 50.5886 342.835 53.39 342.835 56.8475C342.835 60.305 345.636 63.1063 349.094 63.1063H358.932V106.12C358.932 115.693 361.734 122.331 367.257 125.85C370.175 127.708 373.39 128.407 376.607 128.407C383.534 128.407 390.471 125.171 394.462 123.311C394.984 123.067 395.436 122.855 395.801 122.696C398.969 121.317 400.42 117.629 399.038 114.459H399.038Z" fill="#414041"/>
<path d="M474.593 128.407C462.672 128.407 440.055 120.053 439.774 88.4352C439.662 75.7728 443.509 64.8545 450.609 57.691C456.466 51.7805 464.215 48.6572 473.016 48.6572C494.79 48.6572 503.781 66.4884 504.936 83.1767C505.095 85.4585 504.294 87.7262 502.74 89.3907C501.207 91.0349 499.046 91.9761 496.807 91.9761H452.455C454.376 115.186 472.444 115.889 474.593 115.889C485.998 115.889 492.265 108.929 492.326 108.86C494.578 106.232 498.526 105.924 501.15 108.169C503.779 110.414 504.088 114.365 501.841 116.993C501.444 117.46 491.886 128.407 474.593 128.407V128.407ZM453.101 79.4584H491.911C489.226 63.6748 479.132 61.1749 473.016 61.1749C467.552 61.1749 463.002 62.9678 459.498 66.5027C456.373 69.6586 454.193 74.1144 453.101 79.4585V79.4584Z" fill="#414041"/>
<path d="M418.034 55.0017C414.577 55.0017 411.776 57.8032 411.776 61.2606V120.013C411.776 123.47 414.577 126.272 418.034 126.272C421.492 126.272 424.293 123.47 424.293 120.013V61.2606C424.293 57.8032 421.492 55.0017 418.034 55.0017Z" fill="#414041"/>
<path d="M418.034 45.4406C422.377 45.4406 425.898 41.9199 425.898 37.5768C425.898 33.2338 422.377 29.713 418.034 29.713C413.691 29.713 410.171 33.2338 410.171 37.5768C410.171 41.9199 413.691 45.4406 418.034 45.4406Z" fill="#414041"/>
</svg>
