<svg width="128" height="128" viewBox="0 0 128 128" fill="none" xmlns="http://www.w3.org/2000/svg">
<path d="M117.48 99.1685L117.438 99.2088C124.107 89.1071 128 77.0106 128 63.9999C128 28.6538 99.3462 0 64.0001 0C28.6539 0 0 28.6538 0 63.9999C0 99.3461 28.6538 128 64.0001 128C76.0018 128 87.2273 124.689 96.8262 118.942L96.7987 118.968C101.371 116.234 123.68 130.742 127.42 126.992C130.466 123.938 115.098 102.784 117.48 99.1685H117.48Z" fill="#FF89BB"/>
<path d="M37.4814 65.9915C42.3884 65.9915 46.3662 61.0957 46.3662 55.0564C46.3662 49.0171 42.3884 44.1213 37.4814 44.1213C32.5745 44.1213 28.5967 49.0171 28.5967 55.0564C28.5967 61.0957 32.5745 65.9915 37.4814 65.9915Z" fill="#414041"/>
<path d="M87.6479 60.5387C92.5548 60.5387 96.5327 55.6429 96.5327 49.6036C96.5327 43.5643 92.5548 38.6685 87.6479 38.6685C82.741 38.6685 78.7632 43.5643 78.7632 49.6036C78.7632 55.6429 82.741 60.5387 87.6479 60.5387Z" fill="#414041"/>
<path d="M60.6065 106.185C40.6756 106.185 27.2535 94.8373 26.6151 94.2876C24.1946 92.2004 23.9233 88.5457 26.0104 86.1251C28.0914 83.7134 31.7355 83.435 34.1543 85.5062C34.3821 85.6977 48.4063 97.2951 67.5889 94.0145C87.4267 90.6275 98.7022 75.6999 98.8139 75.5509C100.718 72.9832 104.344 72.4494 106.909 74.3504C109.475 76.2549 110.012 79.8795 108.108 82.4455C107.539 83.2133 93.9019 101.262 69.5368 105.424C66.4398 105.952 63.4553 106.185 60.6065 106.185L60.6065 106.185Z" fill="#414041"/>
</svg>
