<?xml version="1.0" encoding="UTF-8"?>
<svg width="545px" height="564px" viewBox="0 0 545 564" version="1.1" xmlns="http://www.w3.org/2000/svg" xmlns:xlink="http://www.w3.org/1999/xlink">
    <!-- Generator: Sketch 60.1 (88133) - https://sketch.com -->
    <title>katies_flow</title>
    <desc>Created with Sketch.</desc>
    <g id="Page-1" stroke="none" stroke-width="1" fill="none" fill-rule="evenodd">
        <g id="Desktop-HD-input" transform="translate(-453.000000, -2062.000000)">
            <g id="katies_flow" transform="translate(453.589337, 2062.156388)">
                <rect id="Rectangle" stroke="#C9C9C9" x="378.5" y="305.338194" width="154.642824" height="137.552632" rx="24"></rect>
                <rect id="Rectangle" stroke="#C9C9C9" x="408.713019" y="339.823761" width="94.2167865" height="8.76582425" rx="4.38291213"></rect>
                <rect id="Rectangle" fill-opacity="0.6" fill="#142680" x="411.875203" y="394.256522" width="65.9193137" height="3.66218409" rx="1.83109205"></rect>
                <rect id="Rectangle" fill="#E3E5E8" x="411.875203" y="405.243075" width="21.9731046" height="3.66218409" rx="1.83109205"></rect>
                <rect id="Rectangle" fill-opacity="0.6" fill="#142680" x="411.875203" y="384.490698" width="87.8924183" height="3.66218409" rx="1.83109205"></rect>
                <rect id="Rectangle" fill-opacity="0.6" fill="#142680" x="411.875203" y="374.724874" width="87.8924183" height="3.66218409" rx="1.83109205"></rect>
                <rect id="Rectangle" fill-opacity="0.6" fill="#142680" x="411.875203" y="363.738321" width="32.9596569" height="3.66218409" rx="1.83109205"></rect>
                <rect id="Rectangle" fill="#FFBE00" x="411.875203" y="342.375581" width="39.063297" height="3.66218409" rx="1.83109205"></rect>
                <rect id="Rectangle" stroke="#C9C9C9" x="0.5" y="263.34" width="249" height="221.54902" rx="24"></rect>
                <rect id="Rectangle" stroke="#C9C9C9" x="49.0294118" y="318.732157" width="151.941176" height="14.6862745" rx="7.34313725"></rect>
                <rect id="Rectangle" fill="#142680" x="54.4117647" y="406.467451" width="105.882353" height="5.88235294" rx="2.94117647"></rect>
                <rect id="Rectangle" fill="#E3E5E8" x="54.4117647" y="424.11451" width="35.2941176" height="5.88235294" rx="2.94117647"></rect>
                <rect id="Rectangle" fill="#142680" x="54.4117647" y="390.781176" width="141.176471" height="5.88235294" rx="2.94117647"></rect>
                <rect id="Rectangle" fill="#142680" x="54.4117647" y="375.094902" width="141.176471" height="5.88235294" rx="2.94117647"></rect>
                <rect id="Rectangle" fill="#142680" x="54.4117647" y="357.447843" width="52.9411765" height="5.88235294" rx="2.94117647"></rect>
                <rect id="Rectangle" fill="#FFBE00" x="54.4117647" y="323.134118" width="62.745098" height="5.88235294" rx="2.94117647"></rect>
                <path d="M456,530.436032 L456,560.547012 L125.561298,562.499752 L125.561298,509.38902" id="Path-2" stroke="#C9C9C9" stroke-width="2" stroke-linecap="round" stroke-linejoin="round" stroke-dasharray="8"></path>
                <rect id="Rectangle" stroke="#C9C9C9" x="95.0893372" y="36.5" width="343" height="26.5" rx="13.25"></rect>
                <g id="arrow_button" transform="translate(413.589337, 38.750000)" stroke="#142680" stroke-linecap="square">
                    <path d="M14.6367532,10.8217193 L10.8183766,14.6400959 M14.3072697,10.8217193 L7,10.8183766 M10.8183766,7 L14.6367532,10.8183766" id="Combined-Shape"></path>
                </g>
                <g id="logo" transform="translate(247.905793, 0.000000)">
                    <polygon id="Path" fill="#142680" fill-rule="nonzero" points="2.30740704 11.7715585 2.30740704 9.13884494 3.29845728 8.34449169 5.73447389 11.7715585 8.39744858 11.7715585 4.83420688 6.98274328 8.19318631 3.31358782 5.59073378 3.31358782 3.22280459 5.88577927 2.21662381 7.171875 2.18636274 7.171875 2.30740704 5.25029668 2.30740704 0 0 0 0 11.7715585"></polygon>
                    <path d="M21.6422892,11.9228639 C22.4795123,11.9228639 23.1856041,11.7942544 23.7605645,11.5370352 L23.7605645,11.5370352 L23.7605645,9.81971915 C23.1956911,9.99624209 22.7115139,10.0845036 22.3080329,10.0845036 C22.0054221,10.0845036 21.7620726,10.0063291 21.5779844,9.84998022 C21.3938962,9.69363133 21.3018521,9.45154272 21.3018521,9.1237144 L21.3018521,9.1237144 L21.3018521,5.04603441 L23.6697813,5.04603441 L23.6697813,3.31358782 L21.3018521,3.31358782 L21.3018521,1.5130538 L19.8266247,1.5130538 L19.160881,3.29845728 L17.8899158,4.07011472 L17.8899158,5.04603441 L18.9944451,5.04603441 L18.9944451,9.1237144 C18.9944451,10.0567642 19.2050117,10.7565516 19.626145,11.2230765 C20.0472783,11.6896015 20.7193264,11.9228639 21.6422892,11.9228639 Z" id="Path" fill="#142680" fill-rule="nonzero"></path>
                    <path d="M26.5171324,2.26201543 C26.9357439,2.26201543 27.2497026,2.16240605 27.4590084,1.9631873 C27.6683142,1.76396855 27.772967,1.48531448 27.772967,1.12722508 C27.772967,0.375741693 27.3543555,0 26.5171324,0 C25.6799093,0 25.2612977,0.375741693 25.2612977,1.12722508 C25.2612977,1.88375198 25.6799093,2.26201543 26.5171324,2.26201543 Z" id="Path" fill="#142680" fill-rule="nonzero"></path>
                    <polygon id="Path" fill="#142680" fill-rule="nonzero" points="27.6670533 11.7715585 27.6670533 3.31358782 25.3596462 3.31358782 25.3596462 11.7715585"></polygon>
                    <path d="M33.4648593,3.15471717 C34.6601718,3.15471717 35.5906999,3.49515427 36.2564435,4.17602848 C36.9221872,4.85690269 37.255059,5.7975178 37.255059,6.99787381 L37.255059,6.99787381 L37.255059,8.11753362 L31.8005001,8.11753362 L31.8151637,8.33076213 C31.8709536,8.88517493 32.060241,9.3260153 32.3830258,9.65328323 C32.7461587,10.0214597 33.2555535,10.2055479 33.9112102,10.2055479 C34.4206049,10.2055479 34.9022604,10.152591 35.3561765,10.0466772 C35.8100927,9.94076345 36.2841829,9.77180578 36.7784471,9.53980419 L36.7784471,9.53980419 L36.7784471,11.3252077 L36.5330298,11.4400485 C36.2013684,11.5848981 35.8519538,11.6966624 35.4847861,11.7753412 C35.0258265,11.8736897 34.4659965,11.9228639 33.8052964,11.9228639 C32.443548,11.9228639 31.3793668,11.5471222 30.6127529,10.7956388 C29.846139,10.0441555 29.462832,8.97997429 29.462832,7.60309533 C29.462832,6.18586828 29.8171388,5.09016515 30.5257523,4.31598596 C31.2343658,3.54180676 32.2140681,3.15471717 33.4648593,3.15471717 Z M33.4799898,4.79638054 C32.9907691,4.79638054 32.6074621,4.95146855 32.3300689,5.26164458 C32.0526757,5.57182061 31.8938051,6.01186709 31.853457,6.58178402 L31.853457,6.58178402 L35.0913921,6.58178402 C35.0813051,6.01186709 34.9325215,5.57182061 34.6450412,5.26164458 C34.357561,4.95146855 33.9692105,4.79638054 33.4799898,4.79638054 Z" id="Combined-Shape" fill="#142680" fill-rule="nonzero"></path>
                    <path d="M13.8441071,9.63326833 C13.9047922,9.5208932 13.3671622,9.53805051 13.0585913,9.40604113 C12.8528773,9.31803489 12.70002,9.22028997 12.6000193,9.11280638 C12.1360754,9.37767083 11.8831201,9.75200502 11.8411535,10.2358089 L13.4808553,10.4783921 L13.8441071,9.63326833 Z" id="Path-3" fill="#FFBE00" fill-rule="evenodd"></path>
                    <path d="M12.9675282,3.13958663 C14.1023186,3.13958663 14.9723245,3.38671875 15.577546,3.88098299 C16.1827675,4.37524723 16.4853783,5.12673062 16.4853783,6.13543315 C16.4757322,7.27781805 16.230616,7.8490105 15.7500297,7.8490105 L15.7500297,7.8490105 L14.1931018,7.8490105 C14.1928566,7.85036969 14.1926115,7.85172851 14.1923664,7.85308697 L13.3004001,7.88301028 L13.0831554,7.8934709 C12.5207726,7.93132838 12.0938798,8.04888581 11.8024768,8.2461432 C11.4746485,8.46805775 11.3107343,8.8059731 11.3107343,9.25988924 C11.3107343,9.91050237 11.6839543,10.2358089 12.4303941,10.2358089 C12.9650065,10.2358089 13.3924442,10.0819818 13.7127072,9.77432753 C13.7604984,9.72841788 13.8047238,9.68026205 13.8453834,9.62986003 C13.5709784,10.8876794 13.3455746,11.5574638 13.1680079,11.6391663 C12.7569616,11.8282981 12.2210884,11.9228639 11.5603882,11.9228639 C10.7483827,11.9228639 10.1091174,11.6908623 9.64259251,11.2268592 C9.17606759,10.762856 8.94280513,10.1021559 8.94280513,9.2447587 C8.94280513,8.34701345 9.25676379,7.68505241 9.88468112,7.25887559 C10.5125984,6.83269877 11.4595179,6.59691456 12.7254396,6.55152294 L12.7254396,6.55152294 L14.1931018,6.50613133 L14.1931018,6.13543315 C14.1931018,5.278036 13.7543162,4.84933742 12.876745,4.84933742 C12.2009143,4.84933742 11.4065611,5.05359968 10.4936853,5.46212421 L10.4936853,5.46212421 L9.7295931,3.9036788 C10.702991,3.39428402 11.7823028,3.13958663 12.9675282,3.13958663 Z" id="a" fill="#142680" fill-rule="nonzero"></path>
                </g>
                <rect id="Rectangle" fill="#FFBE00" x="103.589337" y="43.75" width="208" height="12" rx="6"></rect>
                <path d="M406.403809,517.602047 C407.029134,517.602047 407.585286,517.555009 408.072266,517.460934 C408.559245,517.366858 409.04069,517.206377 409.516602,516.979489 L409.516602,516.979489 L409.516602,515.394039 C408.979818,515.631995 408.47762,515.802161 408.01001,515.904537 C407.542399,516.006914 407.037435,516.058102 406.495117,516.058102 C405.670573,516.058102 405.031413,515.818763 404.577637,515.340084 C404.123861,514.861406 403.883138,514.176591 403.855469,513.285641 L403.855469,513.285641 L409.973145,513.285641 L409.973145,512.231442 C409.973145,510.942054 409.621745,509.929358 408.918945,509.193356 C408.216146,508.457353 407.258789,508.089352 406.046875,508.089352 C404.740885,508.089352 403.714355,508.518226 402.967285,509.375973 C402.220215,510.23372 401.84668,511.412431 401.84668,512.912106 C401.84668,514.373043 402.249268,515.519935 403.054443,516.35278 C403.859619,517.185625 404.976074,517.602047 406.403809,517.602047 Z M408.055664,511.874508 L403.888672,511.874508 C403.960612,511.121904 404.18335,510.54915 404.556885,510.156246 C404.93042,509.763343 405.427083,509.566891 406.046875,509.566891 C406.666667,509.566891 407.153646,509.761959 407.507812,510.152096 C407.861979,510.542233 408.044596,511.11637 408.055664,511.874508 L408.055664,511.874508 Z M412.748689,517.436032 L415.006501,513.999508 L417.272614,517.436032 L419.480622,517.436032 L416.235017,512.74609 L419.322907,508.255368 L417.1149,508.255368 L415.006501,511.46777 L412.914704,508.255368 L410.690095,508.255368 L413.769685,512.74609 L410.540681,517.436032 L412.748689,517.436032 Z M422.920229,521.520016 L422.920229,517.759762 C422.920229,517.593746 422.881492,517.123369 422.804018,516.348629 L422.804018,516.348629 L422.920229,516.348629 C423.562156,517.184241 424.464174,517.602047 425.626283,517.602047 C426.771791,517.602047 427.669659,517.181474 428.319887,516.340328 C428.970115,515.499183 429.295229,514.328772 429.295229,512.829098 C429.295229,511.329424 428.975649,510.164547 428.336489,509.334469 C427.697328,508.504391 426.804994,508.089352 425.659487,508.089352 C424.442039,508.089352 423.528953,508.554196 422.920229,509.483883 L422.920229,509.483883 L422.820619,509.483883 C422.682273,508.836422 422.590964,508.426917 422.546694,508.255368 L422.546694,508.255368 L420.969545,508.255368 L420.969545,521.520016 L422.920229,521.520016 Z M425.186342,516.008297 C424.383933,516.008297 423.805645,515.75789 423.451479,515.257077 C423.097312,514.756263 422.920229,513.946937 422.920229,512.829098 L422.920229,512.829098 L422.920229,512.538571 C422.920229,511.542477 423.098696,510.817542 423.455629,510.363766 C423.812563,509.90999 424.378399,509.683102 425.153139,509.683102 C425.855938,509.683102 426.388572,509.947343 426.751039,510.475827 C427.113507,511.00431 427.294741,511.7832 427.294741,512.812496 C427.294741,513.836259 427.112123,514.624834 426.746889,515.178219 C426.381655,515.731605 425.861472,516.008297 425.186342,516.008297 Z M435.449191,517.602047 C436.074516,517.602047 436.630669,517.555009 437.117648,517.460934 C437.604627,517.366858 438.086072,517.206377 438.561984,516.979489 L438.561984,516.979489 L438.561984,515.394039 C438.0252,515.631995 437.523003,515.802161 437.055392,515.904537 C436.587781,516.006914 436.082817,516.058102 435.540499,516.058102 C434.715955,516.058102 434.076795,515.818763 433.623019,515.340084 C433.169243,514.861406 432.92852,514.176591 432.900851,513.285641 L432.900851,513.285641 L439.018527,513.285641 L439.018527,512.231442 C439.018527,510.942054 438.667127,509.929358 437.964328,509.193356 C437.261528,508.457353 436.304171,508.089352 435.092257,508.089352 C433.786268,508.089352 432.759738,508.518226 432.012667,509.375973 C431.265597,510.23372 430.892062,511.412431 430.892062,512.912106 C430.892062,514.373043 431.29465,515.519935 432.099826,516.35278 C432.905001,517.185625 434.021456,517.602047 435.449191,517.602047 Z M437.101046,511.874508 L432.934054,511.874508 C433.005994,511.121904 433.228732,510.54915 433.602267,510.156246 C433.975802,509.763343 434.472466,509.566891 435.092257,509.566891 C435.712049,509.566891 436.199028,509.761959 436.553195,510.152096 C436.907361,510.542233 437.089979,511.11637 437.101046,511.874508 L437.101046,511.874508 Z M443.06409,517.436032 L443.06409,512.63818 C443.06409,511.824703 443.306197,511.163408 443.790409,510.654293 C444.274621,510.145179 444.906864,509.890621 445.687137,509.890621 C445.985965,509.890621 446.273726,509.923825 446.550419,509.990231 L446.550419,509.990231 L446.741336,508.17236 C446.486779,508.117021 446.163049,508.089352 445.770145,508.089352 C445.205692,508.089352 444.678592,508.249834 444.188846,508.570797 C443.6991,508.891761 443.302046,509.326168 442.997684,509.87402 L442.997684,509.87402 L442.898075,509.87402 L442.640751,508.255368 L441.113407,508.255368 L441.113407,517.436032 L443.06409,517.436032 Z M451.276646,517.602047 C451.641881,517.602047 451.994664,517.570228 452.334996,517.506588 C452.675328,517.442949 452.953404,517.364091 453.169224,517.270016 L453.169224,517.270016 L453.169224,515.800778 C452.693313,515.950192 452.217401,516.024899 451.74149,516.024899 C451.359654,516.024899 451.051142,515.912838 450.815953,515.688717 C450.580764,515.464596 450.46317,515.117347 450.46317,514.646969 L450.46317,514.646969 L450.46317,509.732907 L453.077916,509.732907 L453.077916,508.255368 L450.46317,508.255368 L450.46317,506.213375 L449.259556,506.213375 L448.595494,508.155758 L447.250767,508.869625 L447.250767,509.732907 L448.504185,509.732907 L448.504185,514.680172 C448.504185,516.628089 449.428339,517.602047 451.276646,517.602047 Z M461.127539,517.436032 L461.127539,512.63818 C461.127539,511.824703 461.369645,511.163408 461.853857,510.654293 C462.33807,510.145179 462.970312,509.890621 463.750586,509.890621 C464.049414,509.890621 464.337174,509.923825 464.613867,509.990231 L464.613867,509.990231 L464.804785,508.17236 C464.550228,508.117021 464.226497,508.089352 463.833594,508.089352 C463.269141,508.089352 462.742041,508.249834 462.252295,508.570797 C461.762549,508.891761 461.365495,509.326168 461.061133,509.87402 L461.061133,509.87402 L460.961523,509.87402 L460.704199,508.255368 L459.176855,508.255368 L459.176855,517.436032 L461.127539,517.436032 Z M470.053962,517.602047 C470.679288,517.602047 471.23544,517.555009 471.722419,517.460934 C472.209398,517.366858 472.690844,517.206377 473.166755,516.979489 L473.166755,516.979489 L473.166755,515.394039 C472.629971,515.631995 472.127774,515.802161 471.660163,515.904537 C471.192553,516.006914 470.687588,516.058102 470.145271,516.058102 C469.320726,516.058102 468.681566,515.818763 468.22779,515.340084 C467.774014,514.861406 467.533291,514.176591 467.505622,513.285641 L467.505622,513.285641 L473.623298,513.285641 L473.623298,512.231442 C473.623298,510.942054 473.271898,509.929358 472.569099,509.193356 C471.866299,508.457353 470.908943,508.089352 469.697028,508.089352 C468.391039,508.089352 467.364509,508.518226 466.617439,509.375973 C465.870368,510.23372 465.496833,511.412431 465.496833,512.912106 C465.496833,514.373043 465.899421,515.519935 466.704597,516.35278 C467.509773,517.185625 468.626228,517.602047 470.053962,517.602047 Z M471.705818,511.874508 L467.538825,511.874508 C467.610765,511.121904 467.833503,510.54915 468.207038,510.156246 C468.580573,509.763343 469.077237,509.566891 469.697028,509.566891 C470.31682,509.566891 470.803799,509.761959 471.157966,510.152096 C471.512133,510.542233 471.69475,511.11637 471.705818,511.874508 L471.705818,511.874508 Z M479.578041,517.436032 L483.080971,508.255368 L481.005776,508.255368 L479.1381,513.59277 C478.800535,514.644202 478.60685,515.369137 478.557045,515.767575 L478.557045,515.767575 L478.490639,515.767575 C478.424233,515.214189 478.230548,514.489254 477.909584,513.59277 L477.909584,513.59277 L476.041908,508.255368 L473.983315,508.255368 L477.469643,517.436032 L479.578041,517.436032 Z M485.341867,506.894039 C485.684966,506.894039 485.951974,506.79858 486.142892,506.607662 C486.33381,506.416744 486.429269,506.15527 486.429269,505.823239 C486.429269,505.474606 486.33381,505.206214 486.142892,505.018063 C485.951974,504.829912 485.684966,504.735836 485.341867,504.735836 C484.9877,504.735836 484.715158,504.829912 484.52424,505.018063 C484.333322,505.206214 484.237863,505.474606 484.237863,505.823239 C484.237863,506.15527 484.333322,506.416744 484.52424,506.607662 C484.715158,506.79858 484.9877,506.894039 485.341867,506.894039 Z M486.304757,517.436032 L486.304757,508.255368 L484.354074,508.255368 L484.354074,517.436032 L486.304757,517.436032 Z M492.981669,517.602047 C493.606994,517.602047 494.163146,517.555009 494.650126,517.460934 C495.137105,517.366858 495.61855,517.206377 496.094461,516.979489 L496.094461,516.979489 L496.094461,515.394039 C495.557678,515.631995 495.05548,515.802161 494.58787,515.904537 C494.120259,516.006914 493.615295,516.058102 493.072977,516.058102 C492.248433,516.058102 491.609273,515.818763 491.155497,515.340084 C490.701721,514.861406 490.460998,514.176591 490.433329,513.285641 L490.433329,513.285641 L496.551004,513.285641 L496.551004,512.231442 C496.551004,510.942054 496.199605,509.929358 495.496805,509.193356 C494.794006,508.457353 493.836649,508.089352 492.624735,508.089352 C491.318745,508.089352 490.292215,508.518226 489.545145,509.375973 C488.798075,510.23372 488.42454,511.412431 488.42454,512.912106 C488.42454,514.373043 488.827127,515.519935 489.632303,516.35278 C490.437479,517.185625 491.553934,517.602047 492.981669,517.602047 Z M494.633524,511.874508 L490.466532,511.874508 C490.538472,511.121904 490.76121,510.54915 491.134745,510.156246 C491.50828,509.763343 492.004943,509.566891 492.624735,509.566891 C493.244527,509.566891 493.731506,509.761959 494.085672,510.152096 C494.439839,510.542233 494.622456,511.11637 494.633524,511.874508 L494.633524,511.874508 Z M501.808482,517.436032 L503.028697,513.16943 C503.216848,512.544105 503.471405,511.484371 503.792369,509.990231 L503.792369,509.990231 L503.867076,509.990231 C504.243378,511.644853 504.503469,512.699052 504.647349,513.152828 L504.647349,513.152828 L505.834361,517.436032 L508.025767,517.436032 L510.615611,508.255368 L508.656627,508.255368 L507.469615,512.779293 C507.165253,514.002275 506.971568,514.954098 506.88856,515.634762 L506.88856,515.634762 L506.822154,515.634762 C506.800019,515.324866 506.726695,514.890459 506.602183,514.331539 C506.477672,513.77262 506.373912,513.357581 506.290904,513.086422 L506.290904,513.086422 L504.937877,508.255368 L502.796275,508.255368 L501.401744,513.086422 C501.318736,513.346513 501.22051,513.738034 501.107066,514.260983 C500.993622,514.783932 500.909231,515.247392 500.853892,515.651364 L500.853892,515.651364 L500.804088,515.651364 C500.693411,514.854489 500.505259,513.897132 500.239634,512.779293 L500.239634,512.779293 L499.069224,508.255368 L497.077037,508.255368 L499.650279,517.436032 L501.808482,517.436032 Z" id="expertreview" fill="#80868B" fill-rule="nonzero"></path>
                <path d="M260.999602,137.84 L262.186614,134.469883 L266.826751,134.469883 L268.038665,137.84 L270.147063,137.84 L265.606536,125.654453 L263.448333,125.654453 L258.907806,137.84 L260.999602,137.84 Z M266.303802,132.759922 L262.767669,132.759922 L263.863372,129.597324 C264.151132,128.789381 264.36972,128.045078 264.519134,127.364414 C264.574472,127.585768 264.675465,127.934401 264.822112,128.410312 C264.968759,128.886224 265.083587,129.234857 265.166595,129.456211 L265.166595,129.456211 L266.303802,132.759922 Z M273.611572,137.84 L273.611572,125.704258 L271.627686,125.704258 L271.627686,137.84 L273.611572,137.84 Z" id="AI" fill="#142680" fill-rule="nonzero"></path>
                <polyline id="Path-3" stroke="#FFBE00" stroke-width="2" stroke-linejoin="round" points="267 150.84 267 174.84 125 174.84 125 238.84"></polyline>
                <circle id="Oval" fill="#142680" cx="250" cy="262.84" r="22"></circle>
                <polyline id="Path-6" stroke="#FFFFFF" stroke-width="2" points="242.835784 264.477107 247.399559 269.604657 257.164216 256.075343"></polyline>
                <circle id="Oval" fill="#C9C9C9" cx="528" cy="312.84" r="16"></circle>
                <g id="Group-6" transform="translate(522.666667, 307.377778)" stroke="#FFFFFF" stroke-width="2">
                    <line x1="5.14985962" y1="-0.858217264" x2="5.14985962" y2="12.1124494" id="Path-27" transform="translate(5.149860, 5.627116) rotate(45.000000) translate(-5.149860, -5.627116) "></line>
                    <line x1="-1.33547372" y1="5.62711607" x2="11.635193" y2="5.62711607" id="Path-7" transform="translate(5.149860, 5.627116) rotate(45.000000) translate(-5.149860, -5.627116) "></line>
                </g>
                <path d="M275,174.84 L456,174.84 L456,280.84" id="Path-4" stroke="#C9C9C9" stroke-width="2" stroke-linecap="round" stroke-linejoin="round" stroke-dasharray="8"></path>
                <line x1="267" y1="87.8399999" x2="267" y2="111.84" id="Path-5" stroke="#FFBE00" stroke-width="2"></line>
                <line x1="456" y1="467.838194" x2="456" y2="491.436032" id="Path-5" stroke="#C9C9C9" stroke-width="2" stroke-dasharray="8"></line>
            </g>
        </g>
    </g>
</svg>