<?xml version="1.0" encoding="UTF-8"?>
<svg width="212px" height="48px" viewBox="0 0 212 48" version="1.1" xmlns="http://www.w3.org/2000/svg" xmlns:xlink="http://www.w3.org/1999/xlink">
    <title>katie_logo</title>
    <g id="Page-1" stroke="none" stroke-width="1" fill="none" fill-rule="evenodd">
        <g id="Artboard" transform="translate(-133.000000, -173.000000)">
            <g id="katie_logo" transform="translate(133.000000, 173.000000)">
                <g id="Group-3" transform="translate(64.000000, 0.000000)" fill="#414041" fill-rule="nonzero">
                    <path d="M27.9559328,41.8100776 L12.5425902,28.7751811 L26.5482518,16.8771472 C27.7993116,15.8151737 27.9406527,13.9523252 26.8638818,12.7175271 C25.7880659,11.4826819 23.9000162,11.3415284 22.6489565,12.406424 L5.97739157,26.5680502 L5.97739157,3.94980072 C5.97739157,2.32033851 4.63894864,1 2.98869578,1 C1.33796542,1 0,2.32033851 0,3.94980072 L0,44.0501521 C0,45.6798971 1.33796542,47 2.98869578,47 C4.63894864,47 5.97739157,45.6798971 5.97739157,44.0501521 L5.97739157,30.9918322 L24.066665,46.290698 C24.6305969,46.766708 25.3215448,47 26.0101051,47 C26.8524217,47 27.6894857,46.6507689 28.2811128,45.9697448 C29.3545412,44.7321189 29.2093801,42.8700245 27.9559328,41.8100776 L27.9559328,41.8100776 Z" id="Path"></path>
                    <path d="M63.0645424,11.9933477 C61.4427478,11.9933477 60.1290848,13.3193102 60.1290848,14.9558772 L60.1290848,16.5412764 C57.0458928,13.140341 52.8028692,11 48.2001241,11 C39.2680599,11 32,19.2984244 32,29.499574 C32,39.7009602 39.2680599,48 48.2001241,48 C53.2948479,48 57.2991517,45.9442919 60.1290848,42.846293 L60.1290848,44.4433363 C60.1290848,46.08014 61.4427478,47.4059605 63.0645424,47.4059605 C64.685868,47.4059605 66,46.08014 66,44.4433363 L66,14.9558772 C66,13.3193102 64.685868,11.9933477 63.0645424,11.9933477 Z M48.2001241,42.075225 C42.6007587,42.075225 37.8709152,36.315645 37.8709152,29.499574 C37.8709152,22.6834083 42.6007587,16.9251064 48.2001241,16.9251064 C53.5255949,16.9251064 59.2272019,21.9774717 59.2272019,29.499574 C59.2272019,37.75554 53.6803642,42.075225 48.2001241,42.075225 Z" id="Shape"></path>
                    <path d="M97.7510122,41.3652105 C97.0946478,39.8592065 95.3421217,39.168043 93.830437,39.8249576 C93.6191058,39.9162882 93.3582735,40.0380624 93.0546039,40.1788637 C91.6671477,40.8253133 87.4419509,42.7927272 85.8265044,41.7624036 C85.0592388,41.2738799 84.6199173,39.6836805 84.6199173,37.3985121 L84.6199173,16.9377404 L91.1735655,16.9377404 C92.8189981,16.9377404 94.1526695,15.605217 94.1526695,13.9605522 C94.1526695,12.3158874 92.8189981,10.9833165 91.1735655,10.9833165 L84.6199173,10.9833165 L84.6199173,2.97723572 C84.6199173,1.33257092 83.2867219,0 81.6408133,0 C79.9953807,0 78.6617092,1.33257092 78.6617092,2.97723572 L78.6617092,10.9833165 L73.9791041,10.9833165 C72.3331955,10.9833165 71,12.3158874 71,13.9605522 C71,15.605217 72.3331955,16.9377404 73.9791041,16.9377404 L78.6617092,16.9377404 L78.6617092,37.3985121 C78.6617092,41.9522001 79.9953807,45.1097662 82.6241699,46.7836854 C84.013054,47.6674994 85.5433016,48 87.0745011,48 C90.3715539,48 93.6733665,46.4606984 95.5729677,45.575933 C95.8214247,45.4598669 96.0365637,45.3590227 96.2102932,45.2833895 C97.7181702,44.6274263 98.4088044,42.8731172 97.7510122,41.3652105 L97.7510122,41.3652105 Z" id="Path"></path>
                    <path d="M133.560178,48 C127.890848,48 117.134768,44.0194007 117.001131,28.9538281 C116.947867,22.9203183 118.777404,17.7178551 122.153986,14.3045174 C124.939429,11.4882219 128.62466,10 132.810196,10 C143.165366,10 147.441261,18.4963925 147.99055,26.4482043 C148.066167,27.5354597 147.685231,28.6159965 146.946188,29.4091145 C146.217131,30.1925597 145.189414,30.6410323 144.124601,30.6410323 L123.031898,30.6410323 C123.945477,41.7003228 132.538167,42.0352954 133.560178,42.0352954 C138.984111,42.0352954 141.964539,38.7189234 141.993549,38.6860456 C143.064544,37.4338293 144.942114,37.2870703 146.190023,38.3567909 C147.44031,39.4265114 147.587263,41.3091243 146.518646,42.5613406 C146.329842,42.7838615 141.784296,48 133.560178,48 L133.560178,48 Z M123.339119,24.6765183 L141.796186,24.6765183 C140.519267,17.1557396 135.718813,15.9645617 132.810196,15.9645617 C130.211654,15.9645617 128.047788,16.818861 126.381373,18.5032063 C124.895201,20.0069618 123.858447,22.1301069 123.339119,24.6765183 L123.339119,24.6765183 Z" id="Shape"></path>
                    <path d="M106.99976,13 C105.342654,13 104,14.3364754 104,15.9858525 L104,44.0140998 C104,45.6632861 105.342654,47 106.99976,47 C108.657346,47 110,45.6632861 110,44.0140998 L110,15.9858525 C110,14.3364754 108.657346,13 106.99976,13 Z" id="Path"></path>
                    <path d="M106.999746,9 C109.20894,9 111,7.20916097 111,5 C111,2.7908899 109.20894,1 106.999746,1 C104.790551,1 103,2.7908899 103,5 C103,7.20916097 104.790551,9 106.999746,9 Z" id="Path"></path>
                </g>
                <g id="Group-2">
                    <rect id="Rectangle" fill="#F088B5" x="0" y="0" width="48" height="48" rx="4"></rect>
                    <g id="Katie_Icon" transform="translate(3.000000, 3.000000)" fill-rule="nonzero">
                        <rect id="Rectangle" fill="#F088B5" x="0" y="0" width="41" height="41"></rect>
                        <ellipse id="Oval" fill="#414041" cx="12" cy="18.5" rx="3" ry="3.5"></ellipse>
                        <ellipse id="Oval" fill="#414041" cx="28" cy="15.5" rx="3" ry="3.5"></ellipse>
                        <path d="M20.05877,34 C13.9374298,34 9.81479228,30.5569507 9.61692572,30.3912292 C8.87304763,29.7580248 8.79039451,28.6499169 9.43158235,27.9153008 C10.0727702,27.1831582 11.1898397,27.0990607 11.9337177,27.7273182 C12.0038477,27.7866812 16.3093239,31.3014607 22.2052465,30.3071318 C28.2439336,29.2880683 31.7654575,24.746805 31.8005224,24.7022828 C32.3891128,23.9280914 33.501173,23.7697903 34.2851253,24.3485788 C35.0690777,24.9273672 35.2343839,26.0206343 34.6508028,26.7972992 C34.475478,27.029804 30.2877199,32.5060332 22.8013508,33.7674952 C21.8520922,33.9307433 20.9328894,34 20.05877,34 L20.05877,34 L20.05877,34 Z" id="Path" fill="#414041"></path>
                    </g>
                </g>
            </g>
        </g>
    </g>
</svg>