<svg width="591" height="240" viewBox="0 0 591 240" fill="none" xmlns="http://www.w3.org/2000/svg">
<path d="M161 121.5C161 138.862 155.364 154.924 145.801 168C144.016 170.441 163.048 194.778 161 197C158.942 199.233 130.301 183.51 128 185.5C113.84 197.742 100.797 201 80.5 201C36.0411 201 0 165.407 0 121.5C0 77.5934 36.0411 42 80.5 42C124.959 42 161 77.5934 161 121.5Z" fill="#FF89BB"/>
<mask id="mask0_109_3" style="mask-type:alpha" maskUnits="userSpaceOnUse" x="0" y="42" width="147" height="126">
<path d="M80.5 42C36.0411 42 0 77.5934 0 121.5C0 138.642 5.49335 154.516 14.8363 167.5C14.8363 167.5 -7 99.873 41.5 66C90 32.127 146.872 76.5 146.872 76.5C132.359 55.6626 108.045 42 80.5 42Z" fill="#C4C4C4"/>
</mask>
<g mask="url(#mask0_109_3)">
<ellipse cx="73" cy="116" rx="83" ry="84" fill="#FF7AB2"/>
</g>
<ellipse cx="64.5" cy="133" rx="6.5" ry="8" fill="#404040"/>
<ellipse cx="110.5" cy="128" rx="6.5" ry="8" fill="#404040"/>
<path d="M58 164.5C58 164.5 72.5 177 93 173.5C113.5 170 125 154.5 125 154.5" stroke="#404040" stroke-width="6" stroke-linecap="round"/>
<path d="M239.88 132L280.52 176H255.88L223.24 138.08V176H205V57.6H223.24V126.4L255.24 87.84H280.52L239.88 132ZM287.514 131.52C287.514 122.667 289.327 114.827 292.954 108C296.687 101.173 301.7 95.8933 307.994 92.16C314.394 88.32 321.434 86.4 329.114 86.4C336.047 86.4 342.074 87.7867 347.194 90.56C352.42 93.2267 356.58 96.5867 359.674 100.64V87.84H378.074V176H359.674V162.88C356.58 167.04 352.367 170.507 347.034 173.28C341.7 176.053 335.62 177.44 328.794 177.44C321.22 177.44 314.287 175.52 307.994 171.68C301.7 167.733 296.687 162.293 292.954 155.36C289.327 148.32 287.514 140.373 287.514 131.52ZM359.674 131.84C359.674 125.76 358.394 120.48 355.834 116C353.38 111.52 350.127 108.107 346.074 105.76C342.02 103.413 337.647 102.24 332.954 102.24C328.26 102.24 323.887 103.413 319.834 105.76C315.78 108 312.474 111.36 309.914 115.84C307.46 120.213 306.234 125.44 306.234 131.52C306.234 137.6 307.46 142.933 309.914 147.52C312.474 152.107 315.78 155.627 319.834 158.08C323.994 160.427 328.367 161.6 332.954 161.6C337.647 161.6 342.02 160.427 346.074 158.08C350.127 155.733 353.38 152.32 355.834 147.84C358.394 143.253 359.674 137.92 359.674 131.84ZM423.311 102.72V151.52C423.311 154.827 424.058 157.227 425.551 158.72C427.151 160.107 429.818 160.8 433.551 160.8H444.751V176H430.351C422.138 176 415.845 174.08 411.471 170.24C407.098 166.4 404.911 160.16 404.911 151.52V102.72H394.511V87.84H404.911V65.92H423.311V87.84H444.751V102.72H423.311ZM470.843 76.16C467.536 76.16 464.763 75.04 462.523 72.8C460.283 70.56 459.163 67.7867 459.163 64.48C459.163 61.1733 460.283 58.4 462.523 56.16C464.763 53.92 467.536 52.8 470.843 52.8C474.043 52.8 476.763 53.92 479.003 56.16C481.243 58.4 482.363 61.1733 482.363 64.48C482.363 67.7867 481.243 70.56 479.003 72.8C476.763 75.04 474.043 76.16 470.843 76.16ZM479.803 87.84V176H461.563V87.84H479.803ZM584.55 129.76C584.55 133.067 584.337 136.053 583.91 138.72H516.55C517.083 145.76 519.697 151.413 524.39 155.68C529.083 159.947 534.843 162.08 541.67 162.08C551.483 162.08 558.417 157.973 562.47 149.76H582.15C579.483 157.867 574.63 164.533 567.59 169.76C560.657 174.88 552.017 177.44 541.67 177.44C533.243 177.44 525.67 175.573 518.95 171.84C512.337 168 507.11 162.667 503.27 155.84C499.537 148.907 497.67 140.907 497.67 131.84C497.67 122.773 499.483 114.827 503.11 108C506.843 101.067 512.017 95.7333 518.63 92C525.35 88.2667 533.03 86.4 541.67 86.4C549.99 86.4 557.403 88.2133 563.91 91.84C570.417 95.4667 575.483 100.587 579.11 107.2C582.737 113.707 584.55 121.227 584.55 129.76ZM565.51 124C565.403 117.28 563.003 111.893 558.31 107.84C553.617 103.787 547.803 101.76 540.87 101.76C534.577 101.76 529.19 103.787 524.71 107.84C520.23 111.787 517.563 117.173 516.71 124H565.51Z" fill="black"/>
</svg>
