<?xml version="1.0" encoding="UTF-8"?>
<svg width="153px" height="128px" viewBox="0 0 153 128" version="1.1" xmlns="http://www.w3.org/2000/svg" xmlns:xlink="http://www.w3.org/1999/xlink">
    <!-- Generator: Sketch 60.1 (88133) - https://sketch.com -->
    <title>Group 3</title>
    <desc>Created with Sketch.</desc>
    <g id="Page-1" stroke="none" stroke-width="1" fill="none" fill-rule="evenodd">
        <g id="Desktop-HD-input" transform="translate(-866.000000, -3610.000000)">
            <g id="Group-3" transform="translate(866.500000, 3611.500000)">
                <path d="M25.6182071,95.3520209 C9.11092954,95.3520209 -0.35403002,59.6212108 1.14178098,36.8020906 C2.63759198,13.9829704 15.3129191,0 37.787215,0 C60.261511,0 74.5744301,20.3482819 74.5744301,38.6768885 C74.5744301,57.0054952 66.9326755,62.7377045 64.8999201,76.7225724 C62.8671647,90.7074402 64.8999201,98.4179109 69.4087445,113.497784 C57.9600789,122.054999 35.2722868,126.633538 29.8637234,124.465292 C24.45516,122.297047 30.9614565,95.3223936 31.5755604,92.8189139 C29.1881795,94.5076519 27.202395,95.3520209 25.6182071,95.3520209 Z" id="Path-8" stroke="#000000" stroke-width="2" fill="#FFFFFF"></path>
                <path d="M46.5,62.5 C64.6866249,66.25 69.5005131,52.4264069 69.5005131,40 C69.5005131,27.5735931 60.622576,9.90785366 42.930748,7.57473948 C25.23892,5.24162529 12.1823554,11.8235931 12.1823554,24.25 C12.1823554,36.6764069 28.3133751,58.75 46.5,62.5 Z" id="Oval" fill="#FFBE00"></path>
                <path d="M53.8476562,42.4160156 C55.2421875,42.4160156 56.2784017,41.9041341 56.9562988,40.8803711 C57.634196,39.8566081 57.9731445,38.2905273 57.9731445,36.1821289 C57.9731445,34.1346029 57.6245117,32.5795898 56.9272461,31.5170898 C56.2299805,30.4545898 55.2034505,29.9233398 53.8476562,29.9233398 C52.4586589,29.9233398 51.4252116,30.431071 50.7473145,31.4465332 C50.0694173,32.4619954 49.7304688,34.0405273 49.7304688,36.1821289 C49.7304688,38.2241211 50.0791016,39.7736003 50.7763672,40.8305664 C51.4736328,41.8875326 52.4973958,42.4160156 53.8476562,42.4160156 Z M53.8476562,40.7890625 C53.1005859,40.7890625 52.5568848,40.4348958 52.2165527,39.7265625 C51.8762207,39.0182292 51.7060547,37.8367513 51.7060547,36.1821289 C51.7060547,34.5275065 51.8762207,33.3432617 52.2165527,32.6293945 C52.5568848,31.9155273 53.1005859,31.5585938 53.8476562,31.5585938 C54.5947266,31.5585938 55.1411947,31.9224447 55.4870605,32.6501465 C55.8329264,33.3778483 56.0058594,34.5551758 56.0058594,36.1821289 C56.0058594,37.8146159 55.8329264,38.9905599 55.4870605,39.7099609 C55.1411947,40.429362 54.5947266,40.7890625 53.8476562,40.7890625 Z M69.3513811,42.25 L69.3513811,30.1142578 L67.724428,30.1142578 L64.1550921,32.9199219 L65.1345843,34.1567383 C66.1915504,33.2989909 66.8127255,32.7898763 66.9981097,32.6293945 C67.1834938,32.4689128 67.3398251,32.3222656 67.4671038,32.1894531 C67.422833,32.7373047 67.4006975,33.4788411 67.4006975,34.4140625 L67.4006975,34.4140625 L67.4006975,42.25 L69.3513811,42.25 Z M83.2281529,42.25 L83.2281529,30.1142578 L81.6011998,30.1142578 L78.0318638,32.9199219 L79.011356,34.1567383 C80.0683222,33.2989909 80.6894973,32.7898763 80.8748814,32.6293945 C81.0602655,32.4689128 81.2165969,32.3222656 81.3438756,32.1894531 C81.2996047,32.7373047 81.2774693,33.4788411 81.2774693,34.4140625 L81.2774693,34.4140625 L81.2774693,42.25 L83.2281529,42.25 Z M97.1049247,42.25 L97.1049247,30.1142578 L95.4779715,30.1142578 L91.9086356,32.9199219 L92.8881278,34.1567383 C93.9450939,33.2989909 94.5662691,32.7898763 94.7516532,32.6293945 C94.9370373,32.4689128 95.0933687,32.3222656 95.2206473,32.1894531 C95.1763765,32.7373047 95.1542411,33.4788411 95.1542411,34.4140625 L95.1542411,34.4140625 L95.1542411,42.25 L97.1049247,42.25 Z M110.981696,42.25 L110.981696,30.1142578 L109.354743,30.1142578 L105.785407,32.9199219 L106.7649,34.1567383 C107.821866,33.2989909 108.443041,32.7898763 108.628425,32.6293945 C108.813809,32.4689128 108.97014,32.3222656 109.097419,32.1894531 C109.053148,32.7373047 109.031013,33.4788411 109.031013,34.4140625 L109.031013,34.4140625 L109.031013,42.25 L110.981696,42.25 Z M123.231515,42.4160156 C124.626046,42.4160156 125.66226,41.9041341 126.340158,40.8803711 C127.018055,39.8566081 127.357003,38.2905273 127.357003,36.1821289 C127.357003,34.1346029 127.008371,32.5795898 126.311105,31.5170898 C125.613839,30.4545898 124.587309,29.9233398 123.231515,29.9233398 C121.842518,29.9233398 120.80907,30.431071 120.131173,31.4465332 C119.453276,32.4619954 119.114328,34.0405273 119.114328,36.1821289 C119.114328,38.2241211 119.46296,39.7736003 120.160226,40.8305664 C120.857492,41.8875326 121.881255,42.4160156 123.231515,42.4160156 Z M123.231515,40.7890625 C122.484445,40.7890625 121.940744,40.4348958 121.600412,39.7265625 C121.26008,39.0182292 121.089913,37.8367513 121.089913,36.1821289 C121.089913,34.5275065 121.26008,33.3432617 121.600412,32.6293945 C121.940744,31.9155273 122.484445,31.5585938 123.231515,31.5585938 C123.978585,31.5585938 124.525053,31.9224447 124.870919,32.6501465 C125.216785,33.3778483 125.389718,34.5551758 125.389718,36.1821289 C125.389718,37.8146159 125.216785,38.9905599 124.870919,39.7099609 C124.525053,40.429362 123.978585,40.7890625 123.231515,40.7890625 Z" id="011110" fill="#000000" fill-rule="nonzero"></path>
                <path d="M80.8476562,65.4160156 C82.2421875,65.4160156 83.2784017,64.9041341 83.9562988,63.8803711 C84.634196,62.8566081 84.9731445,61.2905273 84.9731445,59.1821289 C84.9731445,57.1346029 84.6245117,55.5795898 83.9272461,54.5170898 C83.2299805,53.4545898 82.2034505,52.9233398 80.8476562,52.9233398 C79.4586589,52.9233398 78.4252116,53.431071 77.7473145,54.4465332 C77.0694173,55.4619954 76.7304688,57.0405273 76.7304688,59.1821289 C76.7304688,61.2241211 77.0791016,62.7736003 77.7763672,63.8305664 C78.4736328,64.8875326 79.4973958,65.4160156 80.8476562,65.4160156 Z M80.8476562,63.7890625 C80.1005859,63.7890625 79.5568848,63.4348958 79.2165527,62.7265625 C78.8762207,62.0182292 78.7060547,60.8367513 78.7060547,59.1821289 C78.7060547,57.5275065 78.8762207,56.3432617 79.2165527,55.6293945 C79.5568848,54.9155273 80.1005859,54.5585938 80.8476562,54.5585938 C81.5947266,54.5585938 82.1411947,54.9224447 82.4870605,55.6501465 C82.8329264,56.3778483 83.0058594,57.5551758 83.0058594,59.1821289 C83.0058594,60.8146159 82.8329264,61.9905599 82.4870605,62.7099609 C82.1411947,63.429362 81.5947266,63.7890625 80.8476562,63.7890625 Z M94.724428,65.4160156 C96.1189593,65.4160156 97.1551735,64.9041341 97.8330706,63.8803711 C98.5109677,62.8566081 98.8499163,61.2905273 98.8499163,59.1821289 C98.8499163,57.1346029 98.5012835,55.5795898 97.8040179,54.5170898 C97.1067522,53.4545898 96.0802223,52.9233398 94.724428,52.9233398 C93.3354306,52.9233398 92.3019833,53.431071 91.6240862,54.4465332 C90.9461891,55.4619954 90.6072405,57.0405273 90.6072405,59.1821289 C90.6072405,61.2241211 90.9558733,62.7736003 91.6531389,63.8305664 C92.3504046,64.8875326 93.3741676,65.4160156 94.724428,65.4160156 Z M94.724428,63.7890625 C93.9773577,63.7890625 93.4336565,63.4348958 93.0933245,62.7265625 C92.7529925,62.0182292 92.5828264,60.8367513 92.5828264,59.1821289 C92.5828264,57.5275065 92.7529925,56.3432617 93.0933245,55.6293945 C93.4336565,54.9155273 93.9773577,54.5585938 94.724428,54.5585938 C95.4714983,54.5585938 96.0179664,54.9224447 96.3638323,55.6501465 C96.7096982,56.3778483 96.8826311,57.5551758 96.8826311,59.1821289 C96.8826311,60.8146159 96.7096982,61.9905599 96.3638323,62.7099609 C96.0179664,63.429362 95.4714983,63.7890625 94.724428,63.7890625 Z M110.228153,65.25 L110.228153,53.1142578 L108.6012,53.1142578 L105.031864,55.9199219 L106.011356,57.1567383 C107.068322,56.2989909 107.689497,55.7898763 107.874881,55.6293945 C108.060266,55.4689128 108.216597,55.3222656 108.343876,55.1894531 C108.299605,55.7373047 108.277469,56.4788411 108.277469,57.4140625 L108.277469,57.4140625 L108.277469,65.25 L110.228153,65.25 Z M122.477972,65.4160156 C123.872503,65.4160156 124.908717,64.9041341 125.586614,63.8803711 C126.264511,62.8566081 126.60346,61.2905273 126.60346,59.1821289 C126.60346,57.1346029 126.254827,55.5795898 125.557561,54.5170898 C124.860296,53.4545898 123.833766,52.9233398 122.477972,52.9233398 C121.088974,52.9233398 120.055527,53.431071 119.37763,54.4465332 C118.699733,55.4619954 118.360784,57.0405273 118.360784,59.1821289 C118.360784,61.2241211 118.709417,62.7736003 119.406682,63.8305664 C120.103948,64.8875326 121.127711,65.4160156 122.477972,65.4160156 Z M122.477972,63.7890625 C121.730901,63.7890625 121.1872,63.4348958 120.846868,62.7265625 C120.506536,62.0182292 120.33637,60.8367513 120.33637,59.1821289 C120.33637,57.5275065 120.506536,56.3432617 120.846868,55.6293945 C121.1872,54.9155273 121.730901,54.5585938 122.477972,54.5585938 C123.225042,54.5585938 123.77151,54.9224447 124.117376,55.6501465 C124.463242,56.3778483 124.636175,57.5551758 124.636175,59.1821289 C124.636175,60.8146159 124.463242,61.9905599 124.117376,62.7099609 C123.77151,63.429362 123.225042,63.7890625 122.477972,63.7890625 Z M137.981696,65.25 L137.981696,53.1142578 L136.354743,53.1142578 L132.785407,55.9199219 L133.7649,57.1567383 C134.821866,56.2989909 135.443041,55.7898763 135.628425,55.6293945 C135.813809,55.4689128 135.97014,55.3222656 136.097419,55.1894531 C136.053148,55.7373047 136.031013,56.4788411 136.031013,57.4140625 L136.031013,57.4140625 L136.031013,65.25 L137.981696,65.25 Z M151.858468,65.25 L151.858468,53.1142578 L150.231515,53.1142578 L146.662179,55.9199219 L147.641671,57.1567383 C148.698637,56.2989909 149.319813,55.7898763 149.505197,55.6293945 C149.690581,55.4689128 149.846912,55.3222656 149.974191,55.1894531 C149.92992,55.7373047 149.907785,56.4788411 149.907785,57.4140625 L149.907785,57.4140625 L149.907785,65.25 L151.858468,65.25 Z" id="001011" fill="#000000" fill-rule="nonzero"></path>
                <path d="M80.8476562,88.4160156 C82.2421875,88.4160156 83.2784017,87.9041341 83.9562988,86.8803711 C84.634196,85.8566081 84.9731445,84.2905273 84.9731445,82.1821289 C84.9731445,80.1346029 84.6245117,78.5795898 83.9272461,77.5170898 C83.2299805,76.4545898 82.2034505,75.9233398 80.8476562,75.9233398 C79.4586589,75.9233398 78.4252116,76.431071 77.7473145,77.4465332 C77.0694173,78.4619954 76.7304688,80.0405273 76.7304688,82.1821289 C76.7304688,84.2241211 77.0791016,85.7736003 77.7763672,86.8305664 C78.4736328,87.8875326 79.4973958,88.4160156 80.8476562,88.4160156 Z M80.8476562,86.7890625 C80.1005859,86.7890625 79.5568848,86.4348958 79.2165527,85.7265625 C78.8762207,85.0182292 78.7060547,83.8367513 78.7060547,82.1821289 C78.7060547,80.5275065 78.8762207,79.3432617 79.2165527,78.6293945 C79.5568848,77.9155273 80.1005859,77.5585938 80.8476562,77.5585938 C81.5947266,77.5585938 82.1411947,77.9224447 82.4870605,78.6501465 C82.8329264,79.3778483 83.0058594,80.5551758 83.0058594,82.1821289 C83.0058594,83.8146159 82.8329264,84.9905599 82.4870605,85.7099609 C82.1411947,86.429362 81.5947266,86.7890625 80.8476562,86.7890625 Z M96.3513811,88.25 L96.3513811,76.1142578 L94.724428,76.1142578 L91.1550921,78.9199219 L92.1345843,80.1567383 C93.1915504,79.2989909 93.8127255,78.7898763 93.9981097,78.6293945 C94.1834938,78.4689128 94.3398251,78.3222656 94.4671038,78.1894531 C94.422833,78.7373047 94.4006975,79.4788411 94.4006975,80.4140625 L94.4006975,80.4140625 L94.4006975,88.25 L96.3513811,88.25 Z M110.228153,88.25 L110.228153,76.1142578 L108.6012,76.1142578 L105.031864,78.9199219 L106.011356,80.1567383 C107.068322,79.2989909 107.689497,78.7898763 107.874881,78.6293945 C108.060266,78.4689128 108.216597,78.3222656 108.343876,78.1894531 C108.299605,78.7373047 108.277469,79.4788411 108.277469,80.4140625 L108.277469,80.4140625 L108.277469,88.25 L110.228153,88.25 Z M122.477972,88.4160156 C123.872503,88.4160156 124.908717,87.9041341 125.586614,86.8803711 C126.264511,85.8566081 126.60346,84.2905273 126.60346,82.1821289 C126.60346,80.1346029 126.254827,78.5795898 125.557561,77.5170898 C124.860296,76.4545898 123.833766,75.9233398 122.477972,75.9233398 C121.088974,75.9233398 120.055527,76.431071 119.37763,77.4465332 C118.699733,78.4619954 118.360784,80.0405273 118.360784,82.1821289 C118.360784,84.2241211 118.709417,85.7736003 119.406682,86.8305664 C120.103948,87.8875326 121.127711,88.4160156 122.477972,88.4160156 Z M122.477972,86.7890625 C121.730901,86.7890625 121.1872,86.4348958 120.846868,85.7265625 C120.506536,85.0182292 120.33637,83.8367513 120.33637,82.1821289 C120.33637,80.5275065 120.506536,79.3432617 120.846868,78.6293945 C121.1872,77.9155273 121.730901,77.5585938 122.477972,77.5585938 C123.225042,77.5585938 123.77151,77.9224447 124.117376,78.6501465 C124.463242,79.3778483 124.636175,80.5551758 124.636175,82.1821289 C124.636175,83.8146159 124.463242,84.9905599 124.117376,85.7099609 C123.77151,86.429362 123.225042,86.7890625 122.477972,86.7890625 Z M137.981696,88.25 L137.981696,76.1142578 L136.354743,76.1142578 L132.785407,78.9199219 L133.7649,80.1567383 C134.821866,79.2989909 135.443041,78.7898763 135.628425,78.6293945 C135.813809,78.4689128 135.97014,78.3222656 136.097419,78.1894531 C136.053148,78.7373047 136.031013,79.4788411 136.031013,80.4140625 L136.031013,80.4140625 L136.031013,88.25 L137.981696,88.25 Z M151.858468,88.25 L151.858468,76.1142578 L150.231515,76.1142578 L146.662179,78.9199219 L147.641671,80.1567383 C148.698637,79.2989909 149.319813,78.7898763 149.505197,78.6293945 C149.690581,78.4689128 149.846912,78.3222656 149.974191,78.1894531 C149.92992,78.7373047 149.907785,79.4788411 149.907785,80.4140625 L149.907785,80.4140625 L149.907785,88.25 L151.858468,88.25 Z" id="011011" fill="#000000" fill-rule="nonzero"></path>
                <line x1="31.5755604" y1="92.8189139" x2="39.2215166" y2="86.1427584" id="Path-9" stroke="#000000" stroke-width="2" stroke-linecap="round"></line>
            </g>
        </g>
    </g>
</svg>