<svg id="Ebene_1" data-name="Ebene 1" xmlns="http://www.w3.org/2000/svg" viewBox="0 0 280.49 109.86"><defs><style>.cls-1{fill:none;stroke:#70aee3;stroke-miterlimit:10;stroke-width:9px;}.cls-2{fill:#70aee3;}</style></defs><path class="cls-1" d="M712.14,430.25l-24.75-6.62a49.47,49.47,0,1,1,18.13-18.13Z" transform="translate(-608.64 -326.75)"/><path class="cls-2" d="M676.24,409.37,664.47,390l-7.23,6.83v10.6a8.13,8.13,0,0,1-2,5.93,6.37,6.37,0,0,1-4.67,2.08,6,6,0,0,1-4.83-2.05q-1.76-2.06-1.76-6.06V350.53q0-4.44,1.71-6.76a5.72,5.72,0,0,1,4.88-2.32,6.13,6.13,0,0,1,4.89,2.1q1.8,2.1,1.8,6.2v32.33l15-15.73a38.34,38.34,0,0,1,4.25-4,5.92,5.92,0,0,1,3.57-1.07,5.8,5.8,0,0,1,4.15,1.58,5.31,5.31,0,0,1,1.66,4q0,2.94-5.42,7.82l-7.08,6.49L687,402.63c1,1.6,1.73,2.81,2.17,3.64a5.07,5.07,0,0,1,.66,2.37,7,7,0,0,1-1.73,5,6,6,0,0,1-4.57,1.83,5.08,5.08,0,0,1-3.76-1.32A31.56,31.56,0,0,1,676.24,409.37Z" transform="translate(-608.64 -326.75)"/><path class="cls-2" d="M755.2,408a42,42,0,0,1-9.35,5.64,26.25,26.25,0,0,1-10.14,1.88,19.17,19.17,0,0,1-9-2,14.83,14.83,0,0,1-6-5.49,14.25,14.25,0,0,1-2.1-7.52,13.47,13.47,0,0,1,3.47-9.33,17.3,17.3,0,0,1,9.52-5.17q1.27-.3,6.3-1.32c3.35-.69,6.23-1.31,8.62-1.88s5-1.26,7.79-2.08c-.17-3.51-.87-6.09-2.13-7.74s-3.85-2.46-7.78-2.46q-5.08,0-7.65,1.41a12.42,12.42,0,0,0-4.39,4.25,44.85,44.85,0,0,1-2.59,3.74c-.5.6-1.59.9-3.25.9a5.69,5.69,0,0,1-3.88-1.44,4.69,4.69,0,0,1-1.63-3.69,11.26,11.26,0,0,1,2.49-6.83,17.7,17.7,0,0,1,7.76-5.47,35,35,0,0,1,13.14-2.15q8.77,0,13.81,2.07a12.9,12.9,0,0,1,7.11,6.57q2.07,4.5,2.07,11.92,0,4.68,0,8t-.07,7.27a26.81,26.81,0,0,0,1.24,7.84,24.93,24.93,0,0,1,1.25,5.25,4.93,4.93,0,0,1-1.93,3.73,6.51,6.51,0,0,1-4.37,1.69,5.94,5.94,0,0,1-4.06-1.93A28.68,28.68,0,0,1,755.2,408Zm-.88-19.29A67.55,67.55,0,0,1,745.8,391c-3.73.8-6.31,1.38-7.74,1.76A10.42,10.42,0,0,0,734,395a5.6,5.6,0,0,0-2,4.56,6.75,6.75,0,0,0,2.3,5.15,8.47,8.47,0,0,0,6,2.13,15.57,15.57,0,0,0,7.3-1.74,11.49,11.49,0,0,0,4.91-4.47c1.2-2,1.81-5.33,1.81-10Z" transform="translate(-608.64 -326.75)"/><path class="cls-2" d="M779.17,362.5h1.47v-8c0-2.15.05-3.83.17-5.05a7.43,7.43,0,0,1,1-3.15,6,6,0,0,1,2.24-2.22,6.4,6.4,0,0,1,3.28-.86,6.6,6.6,0,0,1,4.59,1.91,5.6,5.6,0,0,1,1.73,3.1,28.44,28.44,0,0,1,.37,5.2v9.08h4.88a6.26,6.26,0,0,1,4.32,1.34,4.44,4.44,0,0,1,1.49,3.44,3.86,3.86,0,0,1-2.12,3.76,13.76,13.76,0,0,1-6.08,1.08H794v24.51a39.06,39.06,0,0,0,.22,4.81,4.81,4.81,0,0,0,1.17,2.73,4,4,0,0,0,3.1,1.05,16.18,16.18,0,0,0,3.17-.41,16.38,16.38,0,0,1,3.13-.42,4,4,0,0,1,2.9,1.3,4.36,4.36,0,0,1,1.3,3.2c0,2.14-1.18,3.79-3.52,4.93s-5.71,1.71-10.11,1.71q-6.24,0-9.47-2.1a9.71,9.71,0,0,1-4.22-5.81,39.37,39.37,0,0,1-1-9.92V372.12h-1.76a6.37,6.37,0,0,1-4.4-1.37,4.47,4.47,0,0,1-1.51-3.47,4.3,4.3,0,0,1,1.59-3.44A7,7,0,0,1,779.17,362.5Z" transform="translate(-608.64 -326.75)"/><path class="cls-2" d="M820.58,355.13a7,7,0,0,1-4.76-1.71,6,6,0,0,1-2-4.84,6,6,0,0,1,2-4.66,6.81,6.81,0,0,1,4.71-1.83,7,7,0,0,1,4.59,1.66,5.94,5.94,0,0,1,2,4.83,6.1,6.1,0,0,1-1.95,4.81A6.76,6.76,0,0,1,820.58,355.13Zm6.59,13.77v38.52q0,4-1.91,6.06a6.32,6.32,0,0,1-4.83,2,6,6,0,0,1-4.76-2.1,8.87,8.87,0,0,1-1.83-6V369.29q0-4,1.83-6a6.14,6.14,0,0,1,4.76-2,6.34,6.34,0,0,1,4.83,2A7.75,7.75,0,0,1,827.17,368.9Z" transform="translate(-608.64 -326.75)"/><path class="cls-2" d="M878.15,391.7H852.07a17.64,17.64,0,0,0,1.83,8,12.28,12.28,0,0,0,11.26,7,16.17,16.17,0,0,0,4.37-.56,14.34,14.34,0,0,0,3.83-1.76,29.29,29.29,0,0,0,3.42-2.56c1-.92,2.39-2.15,4.05-3.72a4.4,4.4,0,0,1,2.93-.87,4.82,4.82,0,0,1,3.32,1.12,4,4,0,0,1,1.27,3.17,8.65,8.65,0,0,1-1.42,4.23,16.75,16.75,0,0,1-4.27,4.64,24.28,24.28,0,0,1-7.18,3.68,30.78,30.78,0,0,1-9.93,1.47q-12.84,0-20-7.33t-7.13-19.87a32.93,32.93,0,0,1,1.76-11,24.23,24.23,0,0,1,5.12-8.67,22.24,22.24,0,0,1,8.3-5.54,29.75,29.75,0,0,1,10.94-1.93,25.88,25.88,0,0,1,13.4,3.3,21.62,21.62,0,0,1,8.38,8.52,22.45,22.45,0,0,1,2.78,10.64c0,3.35-1,5.53-2.88,6.52A18,18,0,0,1,878.15,391.7Zm-26.08-7.57h24.17q-.48-6.84-3.69-10.23a11,11,0,0,0-8.42-3.39A10.65,10.65,0,0,0,856,374Q852.76,377.39,852.07,384.13Z" transform="translate(-608.64 -326.75)"/></svg>