<svg width="123" height="43" viewBox="0 0 123 43" fill="none" xmlns="http://www.w3.org/2000/svg">
<path d="M74.9996 36.0004L74.5244 34.5777L74.9996 36.0004ZM1.50902 25.8308C0.695314 25.9863 0.161695 26.7719 0.317153 27.5856L2.85049 40.8458C3.00595 41.6595 3.79161 42.1931 4.60532 42.0377C5.41903 41.8822 5.95265 41.0966 5.79719 40.2829L3.54534 28.496L15.3322 26.2442C16.1459 26.0887 16.6795 25.3031 16.524 24.4893C16.3686 23.6756 15.5829 23.142 14.7692 23.2975L1.50902 25.8308ZM121.45 0.811144C120.004 0.413302 120.004 0.41227 120.004 0.41132C120.004 0.411113 120.005 0.410244 120.005 0.409829C120.005 0.408998 120.005 0.408494 120.005 0.408315C120.005 0.407957 120.005 0.408899 120.004 0.411126C120.003 0.415581 120 0.425179 119.996 0.439806C119.987 0.469061 119.972 0.518434 119.949 0.587027C119.904 0.724212 119.829 0.938272 119.718 1.22202C119.496 1.78949 119.129 2.63583 118.562 3.70365C117.427 5.83836 115.49 8.86276 112.306 12.317C105.944 19.2186 94.5554 27.8866 74.5244 34.5777L75.4748 37.4231C95.935 30.5887 107.772 21.662 114.512 14.3504C117.879 10.698 119.962 7.46114 121.211 5.11123C121.835 3.93674 122.25 2.98493 122.512 2.31483C122.643 1.97979 122.736 1.71521 122.798 1.52845C122.828 1.43507 122.851 1.36115 122.868 1.3076C122.876 1.28082 122.882 1.25914 122.887 1.24267C122.889 1.23443 122.891 1.2275 122.893 1.22188C122.894 1.21907 122.894 1.21659 122.895 1.21444C122.895 1.21337 122.896 1.212 122.896 1.21146C122.896 1.21018 122.896 1.20899 121.45 0.811144ZM74.5244 34.5777C54.6427 41.2188 36.664 39.0885 23.6311 35.2844C17.1149 33.3825 11.8461 31.0649 8.21252 29.2265C6.39638 28.3077 4.99075 27.5096 4.04424 26.9446C3.57104 26.6621 3.21279 26.4381 2.97556 26.2865C2.85695 26.2107 2.76861 26.153 2.71131 26.1152C2.68265 26.0963 2.66176 26.0824 2.64873 26.0737C2.64221 26.0693 2.63766 26.0663 2.63508 26.0645C2.63379 26.0636 2.633 26.0631 2.6327 26.0629C2.63255 26.0628 2.63269 26.0629 2.63262 26.0629C2.63289 26.063 2.63329 26.0633 1.79051 27.3042C0.947726 28.545 0.948372 28.5455 0.949142 28.546C0.949565 28.5463 0.950462 28.5469 0.951309 28.5474C0.953003 28.5486 0.955198 28.5501 0.957891 28.5519C0.963277 28.5555 0.970658 28.5605 0.98002 28.5668C0.998745 28.5793 1.0254 28.597 1.05989 28.6198C1.12887 28.6653 1.22919 28.7307 1.3601 28.8144C1.6219 28.9817 2.00611 29.2218 2.50663 29.5206C3.50754 30.118 4.97434 30.9503 6.85818 31.9034C10.6245 33.809 16.0659 36.2015 22.7906 38.1643C36.2394 42.0897 54.8652 44.3075 75.4748 37.4231L74.5244 34.5777Z" fill="black"/>
</svg>
