<?xml version="1.0" encoding="utf-8"?>
<!-- Generator: Adobe Illustrator 24.0.1, SVG Export Plug-In . SVG Version: 6.00 Build 0)  -->
<svg version="1.1" id="Layer_1" xmlns:serif="http://www.serif.com/"
	 xmlns="http://www.w3.org/2000/svg" xmlns:xlink="http://www.w3.org/1999/xlink" x="0px" y="0px" viewBox="0 0 60 60.1"
	 style="enable-background:new 0 0 60 60.1;" xml:space="preserve">
<style type="text/css">
	.st0{fill-rule:evenodd;clip-rule:evenodd;fill:#7B83EB;}
	.st1{fill-opacity:9.803920e-02;}
	.st2{fill-opacity:0.2;}
	.st3{fill-rule:evenodd;clip-rule:evenodd;fill:#5059C9;}
	.st4{fill:#5059C9;}
	.st5{fill:#7B83EB;}
	.st6{fill:#4B53BC;}
	.st7{fill:#FFFFFF;}
	.st8{fill:none;}
</style>
<g>
	<circle class="st0" cx="31.9" cy="11.3" r="8.8"/>
	<path class="st1" d="M31.3,13.2h-7.9l0,0.2l0,0l0,0.2c1.2,4.5,5.8,7.3,10.3,6.3v-4.2C33.7,14.3,32.6,13.2,31.3,13.2L31.3,13.2
		L31.3,13.2z"/>
	<path class="st2" d="M29.4,15.1H24c1.4,3,4.5,5,7.9,5v-2.5C31.9,16.2,30.7,15.1,29.4,15.1L29.4,15.1z"/>
	<circle class="st3" cx="51.6" cy="14.1" r="6.6"/>
	<path class="st4" d="M57.2,22.6H42.4c-0.7,0-1.2,0.5-1.2,1.2V39c-0.1,4.5,3,8.5,7.4,9.5c0.6,0.1,1.3,0.2,1.9,0.2
		c5.1,0,9.4-4.2,9.4-9.4V25.4C60,23.8,58.7,22.6,57.2,22.6L57.2,22.6z"/>
	<path class="st5" d="M46.9,25.4v17.8c0,8.2-6.8,15-15,15c-5.4,0-10.3-2.9-13-7.5c-0.4-0.6-0.7-1.2-0.9-1.9
		c-0.2-0.6-0.5-1.2-0.6-1.9c-0.3-1.2-0.5-2.5-0.5-3.8V25.4c0,0,0,0,0,0c0-1.5,1.3-2.8,2.8-2.8h24.4C45.6,22.6,46.9,23.8,46.9,25.4
		L46.9,25.4z"/>
	<path class="st2" d="M29.4,15.1H24c1.4,3,4.5,5,7.9,5v-2.5C31.9,16.2,30.7,15.1,29.4,15.1L29.4,15.1z"/>
	<path class="st1" d="M33.8,22.6v23.8c0,1.2-0.8,2.2-1.9,2.4c-0.2,0.1-0.4,0.1-0.5,0.1H18c-0.2-0.6-0.5-1.2-0.6-1.9
		c-0.3-1.2-0.5-2.5-0.5-3.8V25.4c0,0,0,0,0,0c0-1.5,1.3-2.8,2.8-2.8H33.8z"/>
	<path class="st2" d="M31.9,22.6v25.6c0,0.2,0,0.4-0.1,0.5c-0.2,1.1-1.3,1.9-2.4,1.9H18.9c-0.4-0.6-0.7-1.2-0.9-1.9
		c-0.2-0.6-0.5-1.2-0.6-1.9c-0.3-1.2-0.5-2.5-0.5-3.8V25.4c0,0,0,0,0,0c0-1.5,1.3-2.8,2.8-2.8H31.9L31.9,22.6z M31.9,22.6v21.9
		c0,1.4-1.1,2.5-2.5,2.5h-12c-0.3-1.2-0.5-2.5-0.5-3.8V25.4c0,0,0,0,0,0c0-1.5,1.3-2.8,2.8-2.8H31.9z M19.7,22.6
		C19.7,22.6,19.7,22.6,19.7,22.6c-1.5,0-2.8,1.3-2.8,2.8v17.8c0,1.3,0.2,2.5,0.5,3.8h10.2c1.4,0,2.5-1.1,2.5-2.5V22.6H19.7z"/>
	<path class="st6" d="M2.5,15.1h25c1.4,0,2.5,1.1,2.5,2.5v25c0,1.4-1.1,2.5-2.5,2.5h-25c-1.4,0-2.5-1.1-2.5-2.5v-25
		C0,16.2,1.1,15.1,2.5,15.1z"/>
	<path class="st7" d="M22.5,24.4h-5.6v15h-3.7v-15H7.5v-3.7h14.9V24.4z"/>
	<rect y="0.1" class="st8" width="60" height="60"/>
</g>
</svg>
