<?xml version="1.0" encoding="UTF-8"?>
<svg width="32px" height="33px" viewBox="0 0 32 33" version="1.1" xmlns="http://www.w3.org/2000/svg" xmlns:xlink="http://www.w3.org/1999/xlink">
    <!-- Generator: Sketch 64 (93537) - https://sketch.com -->
    <title>security_illustration</title>
    <desc>Created with Sketch.</desc>
    <g id="Page-1" stroke="none" stroke-width="1" fill="none" fill-rule="evenodd">
        <g id="Desktop-HD-input" transform="translate(-748.000000, -1472.000000)">
            <g id="security_illustration" transform="translate(748.000000, 1472.830000)">
                <path d="M0.310231625,0 L27.2659128,0 C29.7885942,13.9073749 28.4810633,24.8515957 18,31.6469884 C17.9131888,31.7032724 16.6942557,31.7072445 14.3432008,31.6589046 L14.3432005,31.6589233 C13.9748265,31.6513492 13.6157041,31.5421629 13.3054551,31.343411 C3.08069027,24.7932148 -1.25105089,14.3454111 0.310231625,0 Z" id="Path-10" fill="#C9D0DA"></path>
                <path d="M4.31023163,0 L31.2659128,0 C33.8223158,14.0932798 29.7018589,24.5348647 18.904542,31.3247547 L18.904546,31.324761 C18.2260819,31.7514129 17.3584403,31.7318389 16.6999073,31.2750243 C6.91002151,24.4839258 2.78012962,14.0589177 4.31023163,0 Z" id="Path-10" fill="#E5EAF0"></path>
                <path d="M15.9310345,14.9631034 C14.2068966,13.9286206 13.3448276,12.5493103 13.3448276,10.8251724 C13.3448276,8.23896547 15.4137931,6.16999996 18,6.16999996 C20.5862069,6.16999996 22.6551724,8.23896547 22.6551724,10.8251724 C22.6551724,12.5493103 21.7931034,13.9286206 20.0689655,14.9631034 L20.0689655,14.9631034 L20.9093818,20.005601 C21.0001768,20.5503713 20.6321572,21.0655988 20.0873868,21.1563939 C20.0330554,21.1654491 19.9780687,21.17 19.9229879,21.17 L16.0770121,21.17 C15.5247274,21.17 15.0770121,20.7222847 15.0770121,20.17 C15.0770121,20.1149191 15.081563,20.0599324 15.0906182,20.005601 L15.9310345,14.9631034 Z" id="Rectangle" fill="#737F8B"></path>
            </g>
        </g>
    </g>
</svg>