<?xml version="1.0" encoding="UTF-8"?>
<svg width="29px" height="32px" viewBox="0 0 29 32" version="1.1" xmlns="http://www.w3.org/2000/svg" xmlns:xlink="http://www.w3.org/1999/xlink">
    <!-- Generator: Sketch 64 (93537) - https://sketch.com -->
    <title>security_icon</title>
    <desc>Created with Sketch.</desc>
    <g id="Web" stroke="none" stroke-width="1" fill="none" fill-rule="evenodd">
        <g id="Desktop-HD---Home" transform="translate(-822.000000, -1285.000000)">
            <g id="proposition_item" transform="translate(821.000000, 1285.000000)">
                <g id="security_icon" transform="translate(0.913462, 0.000000)">
                    <path d="M0.68286188,4.63539095 L12.2205761,0.421399177 L16.4345679,0.421399177 L23.4010656,4.63539095 C24.7980839,12.3370598 22.4163805,21.3269089 16.2559555,31.6049383 L12.0419638,31.6049383 C3.13286424,25.9040583 -0.653503046,16.9142092 0.68286188,4.63539095 Z" id="Path-10" fill="#C9D0DA"></path>
                    <path d="M4.89685365,4.63539095 L16.4345679,0.421399177 L27.6150574,4.63539095 C29.8423323,16.9142092 26.055965,25.9040583 16.2559555,31.6049383 C7.34685601,25.9040583 3.56048872,16.9142092 4.89685365,4.63539095 Z" id="Path-10" fill="#E5EAF0"></path>
                    <path d="M14.6908472,16.2697925 C13.2377466,15.3979322 12.5111963,14.2354517 12.5111963,12.7823511 C12.5111963,10.6027002 14.254917,8.85897943 16.4345679,8.85897943 C18.6142188,8.85897943 20.3579395,10.6027002 20.3579395,12.7823511 C20.3579395,14.2354517 19.6313892,15.3979322 18.1782886,16.2697925 L18.1782886,16.2697925 L18.8560825,20.3365557 C18.9468776,20.8813261 18.5788579,21.3965536 18.0340876,21.4873487 C17.9797561,21.4964039 17.9247694,21.5009547 17.8696886,21.5009547 L14.9994472,21.5009547 C14.4471625,21.5009547 13.9994472,21.0532395 13.9994472,20.5009547 C13.9994472,20.4458739 14.0039981,20.3908872 14.0130533,20.3365557 L14.6908472,16.2697925 Z" id="Rectangle" fill="#142680"></path>
                </g>
            </g>
        </g>
    </g>
</svg>