<?xml version="1.0" encoding="iso-8859-1"?>
<!-- Generator: Adobe Illustrator 17.1.0, SVG Export Plug-In . SVG Version: 6.00 Build 0)  -->
<!DOCTYPE svg PUBLIC "-//W3C//DTD SVG 1.1//EN" "http://www.w3.org/Graphics/SVG/1.1/DTD/svg11.dtd">
<svg version="1.1" id="Capa_1" xmlns="http://www.w3.org/2000/svg" xmlns:xlink="http://www.w3.org/1999/xlink" x="0px" y="0px"
	 viewBox="0 0 465 465" style="enable-background:new 0 0 465 465;" xml:space="preserve">
<path d="M370.656,290.363c-30.818,0-57.958,16.049-73.502,40.227l-122.311-64.265c4.39-10.408,6.819-21.838,6.819-33.824
	s-2.429-23.416-6.819-33.824l122.311-64.265c15.545,24.178,42.684,40.227,73.502,40.227c48.148,0,87.319-39.171,87.319-87.318
	C457.975,39.171,418.804,0,370.656,0c-48.147,0-87.318,39.171-87.318,87.319c0,11.987,2.429,23.416,6.819,33.824l-122.311,64.265
	c-15.545-24.178-42.684-40.227-73.502-40.227c-48.147,0-87.318,39.171-87.318,87.319s39.171,87.319,87.318,87.319
	c30.818,0,57.958-16.049,73.502-40.227l122.311,64.265c-4.39,10.408-6.819,21.838-6.819,33.824
	c0,48.148,39.171,87.319,87.318,87.319c48.148,0,87.319-39.171,87.319-87.319C457.975,329.534,418.804,290.363,370.656,290.363z
	 M370.656,15c39.877,0,72.319,32.442,72.319,72.319c0,39.876-32.442,72.318-72.319,72.318s-72.318-32.442-72.318-72.318
	C298.337,47.442,330.779,15,370.656,15z M94.343,304.819c-39.876,0-72.318-32.442-72.318-72.319s32.442-72.319,72.318-72.319
	s72.318,32.442,72.318,72.319S134.219,304.819,94.343,304.819z M370.656,450c-39.877,0-72.318-32.442-72.318-72.319
	c0-39.876,32.441-72.318,72.318-72.318s72.319,32.442,72.319,72.318C442.975,417.558,410.533,450,370.656,450z"/>
<g>
</g>
<g>
</g>
<g>
</g>
<g>
</g>
<g>
</g>
<g>
</g>
<g>
</g>
<g>
</g>
<g>
</g>
<g>
</g>
<g>
</g>
<g>
</g>
<g>
</g>
<g>
</g>
<g>
</g>
</svg>
