<?xml version="1.0" encoding="UTF-8"?>
<svg width="358px" height="187px" viewBox="0 0 358 187" version="1.1" xmlns="http://www.w3.org/2000/svg" xmlns:xlink="http://www.w3.org/1999/xlink">
    <!-- Generator: Sketch 60.1 (88133) - https://sketch.com -->
    <title>shelves</title>
    <desc>Created with Sketch.</desc>
    <g id="Page-1" stroke="none" stroke-width="1" fill="none" fill-rule="evenodd">
        <g id="Desktop-HD-input" transform="translate(-544.000000, -1103.000000)">
            <g id="shelves" transform="translate(544.000000, 1103.500000)">
                <rect id="Rectangle" fill="#F3F4F6" x="0" y="182" width="132" height="4"></rect>
                <g id="Group" transform="translate(0.000000, 16.000000)">
                    <rect id="Rectangle" fill="#FFFFFF" x="39.71" y="3.61" width="84.835" height="160.645"></rect>
                    <polygon id="Rectangle" fill="#F5F5F7" points="0 -1.20113376e-12 36.1 2.93245548e-16 36.1 169.044549 0 169.044549"></polygon>
                    <rect id="Rectangle" fill="#FAFAFA" x="39.71" y="46.93" width="120.935" height="3.61"></rect>
                    <rect id="Rectangle" fill="#FAFAFA" x="39.71" y="93.86" width="120.935" height="3.61"></rect>
                    <rect id="Rectangle" fill="#FAFAFA" x="39.71" y="142.595" width="120.935" height="3.61"></rect>
                    <polygon id="Path" fill="#FAFAFA" points="39.71 169.1 36.1 169.1 36.1 0 160.645 0 160.645 167.865 157.035 167.865 157.035 3.61 39.71 3.61"></polygon>
                    <rect id="Rectangle" fill="#F8F8F8" x="52.1" y="113.715" width="22.5625" height="28.88"></rect>
                    <rect id="Rectangle" fill="#F8F8F8" x="52.1" y="18.05" width="22.5625" height="28.88"></rect>
                </g>
                <g id="Group" transform="translate(68.000000, 8.000000)">
                    <rect id="Rectangle" fill="#FFFFFF" x="41.8" y="3.8" width="89.3" height="169.1"></rect>
                    <polygon id="Rectangle" fill="#F0F1F3" points="0 -1.26435133e-12 38 3.08679524e-16 38 177.941631 0 177.941631"></polygon>
                    <rect id="Rectangle" fill="#F8F8F8" x="41.8" y="49.4" width="127.3" height="3.8"></rect>
                    <rect id="Rectangle" fill="#F8F8F8" x="41.8" y="98.8" width="127.3" height="3.8"></rect>
                    <rect id="Rectangle" fill="#F8F8F8" x="41.8" y="150.1" width="127.3" height="3.8"></rect>
                    <polygon id="Path" fill="#F8F8F8" points="41.8 178 38 178 38 0 169.1 0 169.1 176.7 165.3 176.7 165.3 3.8 41.8 3.8"></polygon>
                    <rect id="Rectangle" fill="#F8F8F8" x="54" y="68.4" width="23.75" height="30.4"></rect>
                    <rect id="Rectangle" fill="#F8F8F8" x="54" y="19" width="23.75" height="30.4"></rect>
                </g>
                <rect id="Rectangle" fill="#FFFFFF" x="176" y="4" width="94" height="178"></rect>
                <polygon id="Rectangle" fill="#E3E5E8" points="132 -1.32160949e-12 172 3.22658567e-16 172 186 132 186"></polygon>
                <polygon id="Rectangle" fill="#E3E5E8" points="270 0 310 0 310 186 270 186"></polygon>
                <rect id="Rectangle" fill="#F5F5F5" x="176" y="52" width="134" height="4"></rect>
                <rect id="Rectangle" fill="#F5F5F5" x="176" y="104" width="134" height="4"></rect>
                <rect id="Rectangle" fill="#F4F4F6" x="176" y="182" width="182" height="4"></rect>
                <rect id="Rectangle" fill="#F5F5F5" x="176" y="158" width="134" height="4"></rect>
                <polygon id="Path" fill="#F1F2F3" points="176 186 172 186 172 0 310 0 310 186 306 186 306 4 176 4"></polygon>
                <rect id="Rectangle" fill="#142680" x="205" y="20" width="24" height="32"></rect>
                <rect id="Rectangle" fill="#6672AC" x="228" y="20" width="4" height="32"></rect>
                <rect id="Rectangle" fill="#FFBE00" x="192" y="20" width="25" height="32"></rect>
                <rect id="Rectangle" fill="#FFD559" x="216" y="20" width="4" height="32"></rect>
                <rect id="Rectangle" fill="#142680" x="261" y="20" width="24" height="32"></rect>
                <rect id="Rectangle" fill="#6672AC" x="284" y="20" width="4" height="32"></rect>
                <rect id="Rectangle" fill="#FFBE00" x="248" y="20" width="25" height="32"></rect>
                <rect id="Rectangle" fill="#FFD559" x="272" y="20" width="4" height="32"></rect>
                <rect id="Rectangle" fill="#142680" x="205" y="72" width="24" height="32"></rect>
                <rect id="Rectangle" fill="#6672AC" x="228" y="72" width="4" height="32"></rect>
                <rect id="Rectangle" fill="#142680" x="261" y="72" width="24" height="32"></rect>
                <rect id="Rectangle" fill="#6672AC" x="284" y="72" width="4" height="32"></rect>
                <rect id="Rectangle" fill="#FFBE00" x="248" y="72" width="25" height="32"></rect>
                <rect id="Rectangle" fill="#FFD559" x="272" y="72" width="4" height="32"></rect>
                <rect id="Rectangle" fill="#142680" x="205" y="126" width="24" height="32"></rect>
                <rect id="Rectangle" fill="#6672AC" x="228" y="126" width="4" height="32"></rect>
                <rect id="Rectangle" fill="#FFBE00" x="192" y="126" width="25" height="32"></rect>
                <rect id="Rectangle" fill="#FFD559" x="216" y="126" width="4" height="32"></rect>
            </g>
        </g>
    </g>
</svg>