<?xml version="1.0" encoding="utf-8"?>
<!-- Generator: Adobe Illustrator 16.0.0, SVG Export Plug-In . SVG Version: 6.00 Build 0)  -->
<!DOCTYPE svg PUBLIC "-//W3C//DTD SVG 1.1//EN" "http://www.w3.org/Graphics/SVG/1.1/DTD/svg11.dtd">
<svg version="1.1" id="Layer_1" xmlns="http://www.w3.org/2000/svg" xmlns:xlink="http://www.w3.org/1999/xlink" x="0px" y="0px"
	 width="100px" height="100px" viewBox="0 0 100 100" enable-background="new 0 0 100 100" xml:space="preserve">
<g>
	<g>
		<path fill="#E01E5A" d="M21.01,63.19c0,5.783-4.724,10.507-10.503,10.507C4.724,73.697,0,68.974,0,63.19
			c0-5.775,4.724-10.503,10.507-10.503H21.01V63.19z"/>
		<path fill="#E01E5A" d="M26.303,63.19c0-5.775,4.724-10.503,10.507-10.503c5.779,0,10.503,4.728,10.503,10.503v26.303
			c0,5.783-4.724,10.507-10.503,10.507c-5.783,0-10.507-4.724-10.507-10.507V63.19z"/>
	</g>
	<g>
		<path fill="#36C5F0" d="M36.81,21.01c-5.783,0-10.507-4.724-10.507-10.503C26.303,4.724,31.026,0,36.81,0
			c5.779,0,10.503,4.724,10.503,10.507V21.01H36.81z"/>
		<path fill="#36C5F0" d="M36.81,26.303c5.779,0,10.503,4.724,10.503,10.507c0,5.779-4.724,10.503-10.503,10.503H10.507
			C4.724,47.312,0,42.589,0,36.81c0-5.783,4.724-10.507,10.507-10.507H36.81z"/>
	</g>
	<g>
		<path fill="#2EB67D" d="M78.986,36.81c0-5.783,4.724-10.507,10.507-10.507S100,31.026,100,36.81
			c0,5.779-4.724,10.503-10.507,10.503H78.986V36.81z"/>
		<path fill="#2EB67D" d="M73.697,36.81c0,5.779-4.724,10.503-10.507,10.503c-5.775,0-10.503-4.724-10.503-10.503V10.507
			C52.688,4.724,57.415,0,63.19,0c5.783,0,10.507,4.724,10.507,10.507V36.81z"/>
	</g>
	<g>
		<path fill="#ECB22E" d="M63.19,78.986c5.783,0,10.507,4.724,10.507,10.507S68.974,100,63.19,100
			c-5.775,0-10.503-4.724-10.503-10.507V78.986H63.19z"/>
		<path fill="#ECB22E" d="M63.19,73.697c-5.775,0-10.503-4.724-10.503-10.507c0-5.775,4.728-10.503,10.503-10.503h26.303
			c5.783,0,10.507,4.728,10.507,10.503c0,5.783-4.724,10.507-10.507,10.507H63.19z"/>
	</g>
</g>
</svg>
