<?xml version="1.0" standalone="no"?>
<!DOCTYPE svg PUBLIC "-//W3C//DTD SVG 20010904//EN"
 "http://www.w3.org/TR/2001/REC-SVG-20010904/DTD/svg10.dtd">
<svg version="1.0" xmlns="http://www.w3.org/2000/svg"
 width="16.000000pt" height="16.000000pt" viewBox="0 0 16.000000 16.000000"
 preserveAspectRatio="xMidYMid meet">
<metadata>
Created by potrace 1.11, written by Peter Selinger 2001-2013
</metadata>
<g transform="translate(0.000000,16.000000) scale(0.002286,-0.002286)"
fill="#000000" stroke="none">
<path d="M3375 5749 c-136 -15 -174 -21 -263 -45 -348 -91 -502 -278 -508
-619 -4 -276 87 -533 233 -654 37 -31 155 -93 200 -106 22 -6 22 -5 -7 65 -35
84 -69 204 -76 263 -2 23 -7 48 -9 55 -7 19 -7 183 0 227 31 200 165 345 363
396 258 66 507 -54 625 -300 22 -44 46 -163 48 -232 2 -91 -12 -153 -72 -328
-21 -62 -39 -115 -39 -117 0 -3 19 5 42 17 59 30 148 123 190 200 43 76 93
222 103 299 4 30 9 64 11 74 10 54 4 229 -10 296 -50 240 -234 415 -506 481
-122 29 -231 39 -325 28z"/>
<path d="M3445 5245 c-154 -25 -250 -66 -325 -139 -110 -107 -146 -290 -89
-459 51 -152 179 -257 374 -306 204 -52 362 17 422 183 41 115 51 332 20 453
-57 221 -181 304 -402 268z"/>
<path d="M2699 4318 c-45 -45 -109 -118 -135 -154 -127 -178 -191 -296 -246
-455 -28 -84 -32 -107 -32 -209 -1 -102 2 -120 23 -163 28 -57 91 -121 144
-148 l38 -20 -14 28 c-47 93 111 198 303 201 194 4 338 -140 324 -323 -14
-180 -163 -384 -306 -420 -28 -7 -28 -17 -8 -150 28 -184 100 -356 184 -440
64 -63 127 -86 251 -91 78 -3 97 0 141 20 51 24 86 61 118 124 17 32 18 33 39
18 204 -147 507 -100 607 94 24 46 38 101 45 175 3 33 8 77 11 97 3 20 7 85 9
145 3 91 0 117 -17 163 -54 146 -70 217 -82 365 -4 52 22 168 51 224 55 111
121 153 236 153 114 -1 229 -77 218 -144 -5 -34 74 32 99 83 77 149 -72 472
-340 740 -74 73 -117 109 -139 114 -23 5 -61 -4 -148 -34 -239 -82 -411 -112
-635 -111 -54 0 -119 3 -145 6 -27 2 -64 6 -84 9 -104 11 -231 44 -354 91 -49
19 -97 38 -106 40 -11 4 -30 -7 -50 -28z"/>
<path d="M4280 3458 c-49 -25 -95 -93 -105 -154 -3 -25 -8 -56 -11 -67 -10
-50 -4 -176 10 -222 16 -52 52 -108 83 -130 33 -23 115 -33 167 -20 137 35
171 182 105 450 -21 84 -32 99 -100 135 -53 28 -103 31 -149 8z"/>
<path d="M2665 3317 c-58 -27 -100 -73 -113 -120 -8 -29 -2 -129 12 -197 28
-133 63 -214 100 -227 57 -18 204 23 252 71 43 43 68 128 68 233 -1 71 -5 90
-33 147 -41 83 -78 108 -170 113 -54 3 -75 0 -116 -20z"/>
<path d="M4025 2033 c-94 -72 -238 -86 -389 -38 -26 9 -51 14 -54 11 -14 -14
-21 -243 -10 -326 8 -60 33 -157 65 -253 29 -87 54 -115 140 -154 86 -39 202
-35 291 11 67 34 63 104 -11 201 l-35 45 18 38 c48 103 57 387 14 464 -8 15
-11 15 -29 1z"/>
<path d="M2934 1876 c6 -143 7 -157 36 -262 43 -159 122 -274 218 -316 54 -24
68 -27 167 -33 142 -8 191 22 188 116 -1 54 -12 77 -66 141 -38 45 -39 49 -32
95 5 26 10 55 12 63 15 61 2 235 -19 256 -3 2 -25 -6 -49 -19 -133 -71 -312
-53 -410 42 l-50 48 5 -131z"/>
</g>
</svg>
